<svg width="39" height="39" viewBox="0 0 39 39" fill="none" xmlns="http://www.w3.org/2000/svg">
<path d="M36.9784 12.1985C36.0328 9.96291 34.6793 7.95532 32.9555 6.23149C31.2317 4.50771 29.2241 3.15424 26.9884 2.20862C24.6733 1.2294 22.2146 0.73291 19.6807 0.73291C17.1467 0.73291 14.688 1.2294 12.3729 2.20862C10.1372 3.15424 8.12964 4.50771 6.40586 6.23149C4.68208 7.95532 3.32856 9.96291 2.38294 12.1985C1.40372 14.5137 0.907227 16.9723 0.907227 19.5063C0.907227 22.0403 1.40372 24.499 2.38299 26.8142C3.32856 29.0498 4.68208 31.0574 6.40586 32.7812C8.12964 34.505 10.1373 35.8585 12.3729 36.8041C14.688 37.7832 17.1467 38.2798 19.6807 38.2798C22.2146 38.2798 24.6733 37.7832 26.9884 36.8041C29.2241 35.8584 31.2317 34.505 32.9555 32.7812C34.6793 31.0574 36.0328 29.0497 36.9783 26.8142C37.9576 24.499 38.4541 22.0403 38.4541 19.5063C38.4541 16.9723 37.9576 14.5137 36.9784 12.1985ZM32.2209 30.6416C29.6962 27.7921 28.2622 24.1965 28.0354 20.5034H36.4295C36.2011 24.3817 34.6496 27.9095 32.2209 30.6416ZM36.4295 18.5093H28.0307C28.1458 16.4823 28.6276 14.4611 29.4966 12.5516C29.7247 12.0504 29.5033 11.4591 29.0021 11.231C28.5008 11.0029 27.9096 11.2244 27.6816 11.7255C26.7006 13.8811 26.1429 16.1759 26.0211 18.5092H20.6777V2.75751C29.1374 3.25579 35.9312 10.0496 36.4295 18.5093ZM18.6836 2.75751V18.5093H13.3376C13.298 17.7782 13.2164 17.0461 13.0911 16.316C12.4895 12.8093 10.9268 9.5945 8.55359 6.95885C11.2846 4.53428 14.8092 2.98568 18.6836 2.75751ZM7.14049 8.37105C9.66642 11.2217 11.1005 14.8166 11.3269 18.5093H2.93182C3.16025 14.631 4.71169 11.1032 7.14049 8.37105ZM20.6777 36.2552V23.5563C20.6777 23.0057 20.2313 22.5593 19.6807 22.5593C19.13 22.5593 18.6836 23.0057 18.6836 23.5563V36.2552C10.224 35.7569 3.43011 28.9631 2.93182 20.5034H11.3314C11.2154 22.5396 10.7294 24.5702 9.85247 26.488C9.62349 26.9887 9.84384 27.5804 10.3446 27.8094C10.479 27.8708 10.6199 27.8999 10.7587 27.8999C11.1368 27.8999 11.4985 27.6835 11.666 27.3172C12.6556 25.153 13.2178 22.8478 13.34 20.5034H26.0239C26.0637 21.2399 26.1461 21.9774 26.273 22.7127C26.8767 26.2131 28.4384 29.4224 30.8078 32.0538C28.0767 34.4784 24.5521 36.027 20.6777 36.2552Z" fill="#E8ECD7"/>
<path d="M9.82806 28.7217C9.37394 28.4103 8.75332 28.526 8.44188 28.9802C8.38321 29.0658 8.32363 29.151 8.26316 29.2358C7.9433 29.684 8.0474 30.3067 8.49563 30.6265C8.67121 30.7519 8.87351 30.812 9.07393 30.812C9.38521 30.812 9.69191 30.6667 9.88644 30.394C9.95414 30.2992 10.0209 30.2038 10.0866 30.1079C10.398 29.6537 10.2823 29.0331 9.82806 28.7217Z" fill="#E8ECD7"/>
<path d="M29.5171 10.3172C29.6892 10.4348 29.885 10.4912 30.0788 10.4912C30.397 10.4912 30.7098 10.3391 30.9029 10.0566C30.9615 9.97085 31.0209 9.8856 31.0812 9.80075C31.4001 9.35187 31.2948 8.7294 30.8459 8.41044C30.397 8.09148 29.7746 8.19682 29.4556 8.6457C29.3882 8.74047 29.3218 8.83579 29.2565 8.93146C28.9458 9.38612 29.0625 10.0065 29.5171 10.3172Z" fill="#E8ECD7"/>
</svg>
