<svg width="39" height="39" viewBox="0 0 39 39" fill="none" xmlns="http://www.w3.org/2000/svg">
<path d="M11.843 0.613067C12.9606 0.892471 13.6401 2.02496 13.3607 3.14258L5.0172 36.5167C4.73782 37.6343 3.60531 38.3139 2.48771 38.0344C1.37009 37.7551 0.690596 36.6226 0.97 35.505L9.31354 2.13078C9.59294 1.01316 10.7254 0.333663 11.843 0.613067ZM30.0478 2.13078L38.3913 35.505C38.6708 36.6226 37.9912 37.7551 36.8736 38.0344C35.756 38.3139 34.6236 37.6343 34.3443 36.5167L26.0007 3.14258C25.7212 2.02496 26.4008 0.892471 27.5184 0.613067C28.636 0.333663 29.7685 1.01316 30.0478 2.13078ZM19.6807 29.7532C20.7504 29.7532 21.6321 30.5584 21.7526 31.5958L21.7666 31.8391V36.0108C21.7666 37.1629 20.8327 38.0967 19.6807 38.0967C18.611 38.0967 17.7293 37.2915 17.6088 36.2541L17.5948 36.0108V31.8391C17.5948 30.687 18.5287 29.7532 19.6807 29.7532ZM19.6807 15.152C20.8327 15.152 21.7666 16.0858 21.7666 17.2379V21.4096C21.7666 22.5617 20.8327 23.4955 19.6807 23.4955C18.5287 23.4955 17.5948 22.5617 17.5948 21.4096V17.2379C17.5948 16.0858 18.5287 15.152 19.6807 15.152ZM19.6807 0.550782C20.7504 0.550782 21.6321 1.35603 21.7526 2.39341L21.7666 2.63667V6.80844C21.7666 7.96045 20.8327 8.89432 19.6807 8.89432C18.611 8.89432 17.7293 8.08909 17.6088 7.0517L17.5948 6.80844V2.63667C17.5948 1.48467 18.5287 0.550782 19.6807 0.550782Z" fill="#E8ECD7"/>
</svg>
