<svg width="25" height="24" viewBox="0 0 25 24" fill="none" xmlns="http://www.w3.org/2000/svg">
<path d="M18.07 11.0925L18.3385 10.1292L18.07 11.0925ZM18.4892 11.5147L19.4635 11.2894L18.4892 11.5147ZM12.9372 5.17323L13.2838 4.23524L12.9372 5.17323ZM13.3003 5.64599L12.3112 5.7933L13.3003 5.64599ZM20.9514 1.4873C20.9514 0.93502 20.5036 0.487305 19.9514 0.487305C19.3991 0.487305 18.9514 0.93502 18.9514 1.4873H20.9514ZM18.9514 8.0879C18.9514 8.64019 19.3991 9.0879 19.9514 9.0879C20.5036 9.0879 20.9514 8.64019 20.9514 8.0879H18.9514ZM16.7114 3.80225C16.1591 3.80225 15.7114 4.24996 15.7114 4.80225C15.7114 5.35453 16.1591 5.80225 16.7114 5.80225V3.80225ZM23.1353 5.80225C23.6875 5.80225 24.1353 5.35453 24.1353 4.80225C24.1353 4.24996 23.6875 3.80225 23.1353 3.80225V5.80225ZM7.83385 14.816C7.54669 14.3443 6.93146 14.1946 6.4597 14.4818C5.98794 14.7689 5.83829 15.3842 6.12545 15.8559L7.83385 14.816ZM14.1592 15.8559C14.4463 15.3842 14.2967 14.7689 13.8249 14.4818C13.3532 14.1946 12.738 14.3443 12.4508 14.816L14.1592 15.8559ZM7.36451 10.4298V9.4298C6.81222 9.4298 6.36451 9.87752 6.36451 10.4298H7.36451ZM7.45538 10.4298H8.45538C8.45538 9.87752 8.00767 9.4298 7.45538 9.4298V10.4298ZM12.8383 10.4298V9.4298C12.286 9.4298 11.8383 9.87752 11.8383 10.4298H12.8383ZM12.9191 10.4298H13.9191C13.9191 9.87752 13.4714 9.4298 12.9191 9.4298V10.4298ZM7.45538 10.5041V11.5041C8.00767 11.5041 8.45538 11.0564 8.45538 10.5041H7.45538ZM7.36451 10.5041H6.36451C6.36451 11.0564 6.81222 11.5041 7.36451 11.5041V10.5041ZM12.9191 10.5041V11.5041C13.4714 11.5041 13.9191 11.0564 13.9191 10.5041H12.9191ZM12.8383 10.5041H11.8383C11.8383 11.0564 12.286 11.5041 12.8383 11.5041V10.5041ZM13.2838 4.23524C12.236 3.848 11.1055 3.6371 9.92846 3.6371V5.6371C10.865 5.6371 11.761 5.80466 12.5905 6.11122L13.2838 4.23524ZM18.3385 10.1292C16.2394 9.54398 14.623 7.73868 14.2894 5.49868L12.3112 5.7933C12.7604 8.80896 14.9371 11.2572 17.8014 12.0557L18.3385 10.1292ZM19.7217 13.5622C19.7217 12.7813 19.6325 12.0203 19.4635 11.2894L17.5149 11.74C17.65 12.3241 17.7217 12.934 17.7217 13.5622H19.7217ZM9.92846 23.4873C15.3511 23.4873 19.7217 19.0296 19.7217 13.5622H17.7217C17.7217 17.9532 14.2186 21.4873 9.92846 21.4873V23.4873ZM0.135254 13.5622C0.135254 19.0296 4.50584 23.4873 9.92846 23.4873V21.4873C5.63838 21.4873 2.13525 17.9532 2.13525 13.5622H0.135254ZM9.92846 3.6371C4.50584 3.6371 0.135254 8.09481 0.135254 13.5622H2.13525C2.13525 9.1712 5.63838 5.6371 9.92846 5.6371V3.6371ZM17.8014 12.0557C17.6972 12.0267 17.5589 11.9301 17.5149 11.74L19.4635 11.2894C19.3227 10.6807 18.8506 10.272 18.3385 10.1292L17.8014 12.0557ZM12.5905 6.11122C12.394 6.0386 12.3245 5.88253 12.3112 5.7933L14.2894 5.49868C14.2128 4.98434 13.8777 4.45471 13.2838 4.23524L12.5905 6.11122ZM18.9514 1.4873V8.0879H20.9514V1.4873H18.9514ZM16.7114 5.80225H23.1353V3.80225H16.7114V5.80225ZM10.1423 16.1536C9.19006 16.1536 8.3328 15.6357 7.83385 14.816L6.12545 15.8559C6.95681 17.2217 8.43532 18.1536 10.1423 18.1536V16.1536ZM12.4508 14.816C11.9518 15.6357 11.0946 16.1536 10.1423 16.1536V18.1536C11.8493 18.1536 13.3278 17.2217 14.1592 15.8559L12.4508 14.816ZM7.36451 11.4298H7.45538V9.4298H7.36451V11.4298ZM12.8383 11.4298H12.9191V9.4298H12.8383V11.4298ZM6.45538 10.4298V10.5041H8.45538V10.4298H6.45538ZM7.45538 9.5041H7.36451V11.5041H7.45538V9.5041ZM8.36451 10.5041V10.4298H6.36451V10.5041H8.36451ZM11.9191 10.4298V10.5041H13.9191V10.4298H11.9191ZM12.9191 9.5041H12.8383V11.5041H12.9191V9.5041ZM13.8383 10.5041V10.4298H11.8383V10.5041H13.8383Z" fill="#222124"/>
</svg>
