<svg width="40" height="47" viewBox="0 0 40 47" fill="none" xmlns="http://www.w3.org/2000/svg">
<path d="M38.7359 8.2215C32.4069 6.48734 26.0407 3.78709 20.3255 0.412749C20.0219 0.233511 19.6452 0.233511 19.3417 0.412749C13.4616 3.88403 7.43939 6.4382 0.93067 8.2215C0.510203 8.33659 0.21875 8.71879 0.21875 9.1548V19.0417C0.21875 29.2231 4.91568 35.9624 8.85604 39.8231C13.0981 43.9797 18.0395 46.2783 19.8336 46.2783C21.6275 46.2783 26.5689 43.9797 30.8109 39.8231C34.7512 35.9625 39.4479 29.2232 39.4479 19.0417V9.15471C39.4479 8.71879 39.1564 8.33659 38.7359 8.2215ZM37.5126 19.0416C37.5126 28.5509 33.1318 34.8396 29.4565 38.4407C25.2849 42.5281 20.8248 44.3429 19.8336 44.3429C18.8423 44.3429 14.382 42.5281 10.2103 38.4407C6.53511 34.8395 2.15407 28.5509 2.15407 19.0416V9.88927C8.37825 8.12205 14.1748 5.65575 19.8338 2.36721C25.3514 5.56851 31.4371 8.15744 37.5126 9.88891V19.0416Z" fill="#E8ECD7"/>
<path d="M11.2567 9.78123C11.0609 9.28394 10.4991 9.03966 10.0017 9.23561C8.27312 9.91671 6.49889 10.5436 4.72834 11.0991C4.32485 11.2257 4.05029 11.5995 4.05029 12.0223V15.759C4.05029 16.2934 4.48361 16.7266 5.01791 16.7266C5.55221 16.7266 5.98552 16.2934 5.98552 15.759V12.7294C7.57387 12.2155 9.1605 11.6471 10.7111 11.0361C11.2084 10.8403 11.4527 10.2785 11.2567 9.78123Z" fill="#E8ECD7"/>
<path d="M13.0948 9.9647C13.2246 9.9647 13.3565 9.93855 13.4829 9.88339L13.5007 9.87566C13.9902 9.66112 14.2107 9.09124 13.9961 8.60186C13.7814 8.1123 13.2083 7.89084 12.7193 8.10521L12.7036 8.11195C12.2138 8.32586 11.9926 8.89529 12.2065 9.38494C12.3653 9.74845 12.7215 9.9647 13.0948 9.9647Z" fill="#E8ECD7"/>
<path d="M31.362 31.4794C30.9148 31.1872 30.3152 31.3129 30.0226 31.7602C29.2252 32.9806 28.2898 34.1493 27.2419 35.2335C26.3801 36.1249 25.4462 36.9558 24.4663 37.7028C24.0415 38.0268 23.9597 38.634 24.2836 39.059C24.4741 39.3087 24.7623 39.44 25.0537 39.44C25.2584 39.44 25.4646 39.3754 25.6398 39.2417C26.6968 38.4358 27.7039 37.5398 28.6331 36.5786C29.7661 35.4067 30.7786 34.1417 31.6428 32.8187C31.9352 32.3713 31.8093 31.7717 31.362 31.4794Z" fill="#E8ECD7"/>
<path d="M22.2192 39.2206L22.1637 39.2533C21.7013 39.5211 21.5433 40.113 21.811 40.5754C21.9904 40.8854 22.3152 41.0584 22.6493 41.0584C22.8137 41.0584 22.9807 41.0165 23.1331 40.928L23.1972 40.8903C23.6583 40.6203 23.8132 40.0276 23.5432 39.5664C23.2729 39.1054 22.6801 38.9508 22.2192 39.2206Z" fill="#E8ECD7"/>
<path d="M13.2379 21.3033C12.6438 20.7091 11.8536 20.3821 11.0132 20.3821C10.1728 20.3821 9.38254 20.7092 8.78814 21.3033C7.56151 22.5302 7.56151 24.5266 8.78814 25.7534L14.5018 31.4669C15.0961 32.0609 15.8862 32.3881 16.7267 32.3881C17.5672 32.3881 18.3574 32.0609 18.9517 31.4667L30.8794 19.5389C32.106 18.3117 32.106 16.3157 30.8792 15.0892C30.285 14.495 29.4948 14.168 28.6543 14.168C27.8138 14.168 27.0236 14.4951 26.4293 15.0892L16.7266 24.7919L13.2379 21.3033ZM27.7978 16.4577C28.0264 16.2291 28.3307 16.1032 28.6543 16.1032C28.9781 16.1032 29.2822 16.2291 29.511 16.4577C29.9831 16.9299 29.9831 17.6984 29.5108 18.1707L17.5833 30.0983C17.3546 30.327 17.0503 30.4528 16.7267 30.4528C16.4031 30.4528 16.0988 30.327 15.8701 30.0983L10.1565 24.385C9.68424 23.9127 9.68424 23.1442 10.1564 22.672C10.3851 22.4434 10.6894 22.3173 11.0131 22.3173C11.3368 22.3173 11.6409 22.4432 11.8696 22.6718L16.0424 26.8447C16.224 27.0261 16.4699 27.1281 16.7266 27.1281C16.9833 27.1281 17.2293 27.0262 17.4107 26.8447L27.7978 16.4577Z" fill="#E8ECD7"/>
</svg>
