<svg width="44" height="42" viewBox="0 0 44 42" fill="none" xmlns="http://www.w3.org/2000/svg">
<g clip-path="url(#clip0_21_641)">
<path d="M42.9598 16.2074L22.2011 4.89702C21.9728 4.77261 21.6933 4.77261 21.4657 4.89702L0.70707 16.2074C0.414966 16.3664 0.27188 16.693 0.358622 17.0026C0.444622 17.3122 0.738208 17.5278 1.07479 17.5278H4.78169V37.321C4.78169 37.7119 5.11383 38.0278 5.52307 38.0278H15.9024C16.3116 38.0278 16.6438 37.7119 16.6438 37.321V33.7865H27.0231V37.321C27.0231 37.7119 27.3552 38.0278 27.7644 38.0278H38.1438C38.553 38.0278 38.8851 37.7119 38.8851 37.321V17.5278H42.592C42.9286 17.5278 43.2222 17.3122 43.3082 17.0026C43.395 16.6923 43.2519 16.3657 42.9598 16.2074ZM38.1438 16.1141C37.7345 16.1141 37.4024 16.43 37.4024 16.821V36.6141H28.5058V33.0796C28.5058 32.6887 28.1737 32.3727 27.7644 32.3727H15.9024C15.4931 32.3727 15.161 32.6887 15.161 33.0796V36.6141H6.26445V16.821C6.26445 16.43 5.93231 16.1141 5.52307 16.1141H3.86683L21.8334 6.32425L39.8 16.1141H38.1438Z" fill="#E8ECD7"/>
<path d="M15.1609 18.9414H8.48845C8.07921 18.9414 7.74707 19.2574 7.74707 19.6483V23.8897C7.74707 24.2806 8.07921 24.5966 8.48845 24.5966H15.1609C15.5701 24.5966 15.9022 24.2806 15.9022 23.8897V19.6483C15.9022 19.2574 15.5701 18.9414 15.1609 18.9414ZM14.4195 23.1828H9.22983V20.3552H14.4195V23.1828Z" fill="#E8ECD7"/>
<path d="M16.6436 19.6483V23.8897C16.6436 24.2806 16.9757 24.5966 17.3849 24.5966H26.2815C26.6907 24.5966 27.0229 24.2806 27.0229 23.8897V19.6483C27.0229 19.2574 26.6907 18.9414 26.2815 18.9414H17.3849C16.9757 18.9414 16.6436 19.2574 16.6436 19.6483ZM18.1263 20.3552H25.5401V23.1828H18.1263V20.3552Z" fill="#E8ECD7"/>
<path d="M28.506 24.5966H35.1784C35.5877 24.5966 35.9198 24.2806 35.9198 23.8897V19.6483C35.9198 19.2574 35.5877 18.9414 35.1784 18.9414H28.506C28.0968 18.9414 27.7646 19.2574 27.7646 19.6483V23.8897C27.7646 24.2806 28.0968 24.5966 28.506 24.5966ZM29.2474 20.3552H34.4371V23.1828H29.2474V20.3552Z" fill="#E8ECD7"/>
</g>
<defs>
<clipPath id="clip0_21_641">
<rect width="43" height="41" fill="white" transform="translate(0.333496 0.916016)"/>
</clipPath>
</defs>
</svg>
