<svg width="21" height="19" viewBox="0 0 21 19" fill="none" xmlns="http://www.w3.org/2000/svg">
<path fill-rule="evenodd" clip-rule="evenodd" d="M2.36715 2.86205C3.2428 1.98666 4.43027 1.4949 5.66844 1.4949C6.9066 1.4949 8.09408 1.98666 8.96973 2.86205L10.3379 4.22902L11.706 2.86205C12.1368 2.41607 12.652 2.06034 13.2217 1.81562C13.7914 1.5709 14.4041 1.44209 15.0241 1.4367C15.6441 1.43131 16.259 1.54946 16.8328 1.78424C17.4067 2.01902 17.928 2.36574 18.3665 2.80417C18.8049 3.2426 19.1516 3.76395 19.3864 4.3378C19.6212 4.91166 19.7393 5.52653 19.7339 6.14653C19.7286 6.76654 19.5997 7.37926 19.355 7.94895C19.1103 8.51864 18.7546 9.03389 18.3086 9.46463L10.3379 17.4365L2.36715 9.46463C1.49176 8.58898 1 7.40151 1 6.16334C1 4.92517 1.49176 3.7377 2.36715 2.86205V2.86205Z" stroke="#47663B" stroke-width="2" stroke-linejoin="round"/>
</svg>
