<svg width="23" height="23" viewBox="0 0 23 23" fill="none" xmlns="http://www.w3.org/2000/svg">
<path d="M2.13193 18.8472C1.7374 19.2336 1.73087 19.8668 2.11735 20.2613C2.50382 20.6558 3.13696 20.6624 3.53149 20.2759L2.13193 18.8472ZM7.93587 14.5615L8.63565 13.8472C8.24686 13.4663 7.62488 13.4663 7.23609 13.8472L7.93587 14.5615ZM10.488 17.0615L9.78818 17.7759C10.177 18.1567 10.7989 18.1567 11.1877 17.7759L10.488 17.0615ZM16.2301 11.4365L16.9299 10.7222C16.5411 10.3413 15.9192 10.3413 15.5304 10.7222L16.2301 11.4365ZM20.6345 17.1509C21.0291 17.5374 21.6622 17.5308 22.0487 17.1363C22.4351 16.7418 22.4286 16.1086 22.0341 15.7222L20.6345 17.1509ZM3.53149 20.2759L8.63565 15.2759L7.23609 13.8472L2.13193 18.8472L3.53149 20.2759ZM7.23609 15.2759L9.78818 17.7759L11.1877 16.3472L8.63565 13.8472L7.23609 15.2759ZM11.1877 17.7759L16.9299 12.1509L15.5304 10.7222L9.78818 16.3472L11.1877 17.7759ZM15.5304 12.1509L20.6345 17.1509L22.0341 15.7222L16.9299 10.7222L15.5304 12.1509ZM5.38379 2.43652H18.1442V0.436523H5.38379V2.43652ZM20.9723 5.18652V17.6865H22.9723V5.18652H20.9723ZM18.1442 20.4365H5.38379V22.4365H18.1442V20.4365ZM2.55566 17.6865V5.18652H0.555664V17.6865H2.55566ZM5.38379 20.4365C3.80232 20.4365 2.55566 19.186 2.55566 17.6865H0.555664C0.555664 20.3292 2.73683 22.4365 5.38379 22.4365V20.4365ZM20.9723 17.6865C20.9723 19.186 19.7257 20.4365 18.1442 20.4365V22.4365C20.7912 22.4365 22.9723 20.3292 22.9723 17.6865H20.9723ZM18.1442 2.43652C19.7257 2.43652 20.9723 3.68708 20.9723 5.18652H22.9723C22.9723 2.54383 20.7912 0.436523 18.1442 0.436523V2.43652ZM5.38379 0.436523C2.73683 0.436523 0.555664 2.54383 0.555664 5.18652H2.55566C2.55566 3.68708 3.80232 2.43652 5.38379 2.43652V0.436523ZM8.21191 7.06152C8.21191 7.52543 7.82221 7.93652 7.29785 7.93652V9.93652C8.88771 9.93652 10.2119 8.66868 10.2119 7.06152H8.21191ZM7.29785 7.93652C6.77349 7.93652 6.38379 7.52543 6.38379 7.06152H4.38379C4.38379 8.66868 5.708 9.93652 7.29785 9.93652V7.93652ZM6.38379 7.06152C6.38379 6.59761 6.77349 6.18652 7.29785 6.18652V4.18652C5.708 4.18652 4.38379 5.45437 4.38379 7.06152H6.38379ZM7.29785 6.18652C7.82221 6.18652 8.21191 6.59761 8.21191 7.06152H10.2119C10.2119 5.45437 8.88771 4.18652 7.29785 4.18652V6.18652Z" fill="#8A9985"/>
</svg>
