<svg width="39" height="39" viewBox="0 0 39 39" fill="none" xmlns="http://www.w3.org/2000/svg">
<path d="M36.8216 18.509H30.2917C30.2917 17.6074 29.5608 16.8765 28.6592 16.8765H23.7618C22.8602 16.8765 22.1293 17.6074 22.1293 18.509V18.5093H21.1694C20.7977 18.5093 20.4968 18.2084 20.4968 17.8366V16.8764C21.3984 16.8764 22.1293 16.1455 22.1293 15.2439V10.3465C22.1293 9.44492 21.3984 8.71401 20.4968 8.71401V2.18424C20.4968 1.28267 19.766 0.551758 18.8644 0.551758H4.17218C3.27055 0.551758 2.53971 1.28267 2.53971 2.18424V8.71408C1.63814 8.71408 0.907227 9.445 0.907227 10.3466V15.244C0.907227 16.1456 1.63814 16.8765 2.53971 16.8765V20.6935C2.53971 29.4048 9.60129 36.4664 18.3127 36.4664H22.1294C22.1295 37.3679 22.8604 38.0986 23.7619 38.0986H28.6593C29.5609 38.0986 30.2918 37.3676 30.2918 36.4661H36.8216C37.7232 36.4661 38.4541 35.7352 38.4541 34.8336V20.1414C38.454 19.2398 37.7231 18.509 36.8216 18.509ZM4.17218 11.979H18.8644V13.6115H4.17218V11.979ZM5.80466 3.81672H17.2319V8.71416H5.80466V3.81672ZM5.80466 20.6935V16.8768H17.2319V17.8366C17.2319 20.0116 18.9945 21.7741 21.1694 21.7741H22.1293V33.2014H18.3126C11.4045 33.2015 5.80466 27.6017 5.80466 20.6935ZM25.3943 34.8336V20.1414H27.0267V34.8336H25.3943ZM35.1891 33.2011H30.2916V21.7738H35.1891V33.2011Z" fill="#E8ECD7"/>
</svg>
