<svg width="40" height="40" viewBox="0 0 40 40" fill="none" xmlns="http://www.w3.org/2000/svg">
<g clip-path="url(#clip0_20_628)">
<path d="M23.9441 35.5271C23.4566 35.8943 22.9382 36.2811 22.4978 36.6646H26.2191C26.6501 36.6646 27.0634 36.8358 27.3681 37.1405C27.6729 37.4453 27.8441 37.8586 27.8441 38.2896C27.8441 38.7205 27.6729 39.1339 27.3681 39.4386C27.0634 39.7434 26.6501 39.9146 26.2191 39.9146H19.7191C19.2881 39.9146 18.8748 39.7434 18.57 39.4386C18.2653 39.1339 18.0941 38.7205 18.0941 38.2896C18.0941 35.8521 20.166 34.2986 21.9941 32.9271C23.2128 32.0138 24.5941 30.9771 24.5941 30.1646C24.5941 29.7336 24.4229 29.3203 24.1181 29.0155C23.8134 28.7108 23.4001 28.5396 22.9691 28.5396C22.5381 28.5396 22.1248 28.7108 21.82 29.0155C21.5153 29.3203 21.3441 29.7336 21.3441 30.1646C21.3441 30.5955 21.1729 31.0089 20.8681 31.3136C20.5634 31.6184 20.1501 31.7896 19.7191 31.7896C19.2881 31.7896 18.8748 31.6184 18.57 31.3136C18.2653 31.0089 18.0941 30.5955 18.0941 30.1646C18.0941 28.8716 18.6077 27.6317 19.522 26.7174C20.4362 25.8032 21.6762 25.2896 22.9691 25.2896C24.262 25.2896 25.502 25.8032 26.4162 26.7174C27.3305 27.6317 27.8441 28.8716 27.8441 30.1646C27.8441 32.6021 25.7722 34.1556 23.9441 35.5271ZM37.5941 25.2896C37.1631 25.2896 36.7498 25.4608 36.445 25.7655C36.1403 26.0703 35.9691 26.4836 35.9691 26.9146V31.7896H34.3441C33.9131 31.7896 33.4998 31.6184 33.195 31.3136C32.8903 31.0089 32.7191 30.5955 32.7191 30.1646V26.9146C32.7191 26.4836 32.5479 26.0703 32.2431 25.7655C31.9384 25.4608 31.5251 25.2896 31.0941 25.2896C30.6631 25.2896 30.2498 25.4608 29.945 25.7655C29.6403 26.0703 29.4691 26.4836 29.4691 26.9146V30.1646C29.4691 31.4575 29.9827 32.6975 30.8969 33.6117C31.8112 34.526 33.0512 35.0396 34.3441 35.0396H35.9691V38.2896C35.9691 38.7205 36.1403 39.1339 36.445 39.4386C36.7498 39.7434 37.1631 39.9146 37.5941 39.9146C38.0251 39.9146 38.4384 39.7434 38.7431 39.4386C39.0479 39.1339 39.2191 38.7205 39.2191 38.2896V26.9146C39.2191 26.4836 39.0479 26.0703 38.7431 25.7655C38.4384 25.4608 38.0251 25.2896 37.5941 25.2896ZM21.3441 20.4146V12.2896C21.3441 11.8586 21.1729 11.4453 20.8681 11.1405C20.5634 10.8358 20.1501 10.6646 19.7191 10.6646C19.2881 10.6646 18.8748 10.8358 18.57 11.1405C18.2653 11.4453 18.0941 11.8586 18.0941 12.2896V18.7896H13.2191C12.7881 18.7896 12.3748 18.9608 12.07 19.2655C11.7653 19.5703 11.5941 19.9836 11.5941 20.4146C11.5941 20.8455 11.7653 21.2589 12.07 21.5636C12.3748 21.8684 12.7881 22.0396 13.2191 22.0396H19.7191C20.1501 22.0396 20.5634 21.8684 20.8681 21.5636C21.1729 21.2589 21.3441 20.8455 21.3441 20.4146ZM37.5941 4.16457C37.1631 4.16457 36.7498 4.33577 36.445 4.64052C36.1403 4.94527 35.9691 5.35859 35.9691 5.78957V9.64732C34.276 7.09213 32.0043 4.97207 29.3384 3.45916C26.6726 1.94626 23.6876 1.08312 20.6257 0.939789C17.5638 0.796458 14.5112 1.37697 11.7157 2.63422C8.92016 3.89146 6.46038 5.79004 4.53594 8.17589C2.61151 10.5617 1.27662 13.3677 0.639607 16.366C0.00258937 19.3643 0.0813797 22.4706 0.869585 25.4327C1.65779 28.3949 3.13321 31.1296 5.17613 33.4148C7.21904 35.7 9.77191 37.4714 12.6276 38.5853C12.8163 38.6581 13.0168 38.6956 13.2191 38.6958C13.5983 38.6964 13.9658 38.5644 14.2579 38.3225C14.55 38.0807 14.7483 37.7443 14.8185 37.3717C14.8887 36.999 14.8264 36.6136 14.6423 36.282C14.4582 35.9505 14.164 35.6938 13.8106 35.5563C11.3861 34.6188 9.22196 33.1134 7.49972 31.1664C5.77749 29.2194 4.54746 26.8877 3.9129 24.3669C3.27834 21.8461 3.25776 19.2099 3.85288 16.6796C4.44801 14.1492 5.64148 11.7985 7.3331 9.82489C9.02472 7.85123 11.1651 6.3122 13.5747 5.33696C15.9842 4.36173 18.5925 3.97877 21.1807 4.22022C23.7688 4.46167 26.2613 5.32049 28.4489 6.72458C30.6364 8.12868 32.4552 10.0371 33.7526 12.2896H29.4691C29.0381 12.2896 28.6248 12.4608 28.32 12.7655C28.0153 13.0703 27.8441 13.4836 27.8441 13.9146C27.8441 14.3455 28.0153 14.7589 28.32 15.0636C28.6248 15.3684 29.0381 15.5396 29.4691 15.5396H34.3441C35.637 15.5396 36.877 15.026 37.7912 14.1117C38.7055 13.1975 39.2191 11.9575 39.2191 10.6646V5.78957C39.2191 5.35859 39.0479 4.94527 38.7431 4.64052C38.4384 4.33577 38.0251 4.16457 37.5941 4.16457Z" fill="#E8ECD7"/>
</g>
<defs>
<clipPath id="clip0_20_628">
<rect width="39" height="39" fill="white" transform="translate(0.21875 0.914551)"/>
</clipPath>
</defs>
</svg>
