<svg width="3353" height="2024" viewBox="0 0 3353 2024" fill="none" xmlns="http://www.w3.org/2000/svg">
<g clip-path="url(#clip0_49_428)">
<rect width="3353" height="2024" fill="white"/>
<path fill-rule="evenodd" clip-rule="evenodd" d="M110.695 1067.12L299.415 1046.21L298.314 1036.27L98.819 1058.37L153.222 1339.71L362.093 1316.92L314.184 1040.39L304.331 1042.1L326.92 1172.48L135.044 1193.03L110.695 1067.12ZM136.949 1202.89L161.292 1328.77L350.422 1308.14L328.63 1182.36L136.949 1202.89Z" fill="#DB1A1A"/>
<path fill-rule="evenodd" clip-rule="evenodd" d="M657.755 918.637L628.659 903.06C607.843 899.939 575.965 896.251 546.933 895.166C532.206 894.616 518.354 894.742 507.105 895.914C501.481 896.501 496.622 897.338 492.686 898.437C488.683 899.554 485.991 900.847 484.401 902.133C477.351 907.832 465.801 910.85 453.474 912.259C440.889 913.698 426.51 913.56 412.953 912.22C399.426 910.884 386.433 908.322 376.679 904.771C371.83 903.005 367.493 900.893 364.273 898.36C361.126 895.885 358.257 892.355 358.257 887.745C358.257 884.382 357.284 876.006 355.574 864.147C353.889 852.464 351.552 837.807 348.95 822.178C343.747 790.925 337.503 755.878 333.339 733.145L333.056 731.598L373.393 643.265L447.687 535.84L447.73 535.781C460.889 517.898 482.798 492.513 505.833 474.552C517.33 465.587 529.409 458.231 541.051 454.737C552.784 451.215 564.607 451.492 574.663 458.676L1169.38 883.473L1261.56 931.548L2509.6 1255.69L2510.46 1256.4C2521.33 1265.46 2535.62 1281.11 2542.86 1298.76C2546.5 1307.64 2548.46 1317.29 2547.05 1326.96C2547.03 1327.1 2547.01 1327.24 2546.99 1327.38C2544.67 1351.13 2525.9 1377.72 2480.6 1405.37L2450.09 1428.97C2421.76 1454.98 2393.55 1480.93 2375.64 1497.42L2374.73 1498.26L2353.25 1503.9L2349.39 1506.89L2345.58 1505.92L2332.29 1509.41L1222.35 1231.55L1076.77 1182.85L935.095 1106.99L890.894 1074.87L657.755 918.637ZM456.796 540.342C456.468 540.782 456.145 541.218 455.828 541.649L388.765 638.618L549.631 705.446L595.496 626.432L456.796 540.342ZM382.948 647.03L546.681 715.049L542.839 885.026C529.51 884.648 516.791 884.851 506.068 885.968C500.111 886.589 494.655 887.504 489.997 888.805C485.405 890.087 481.224 891.842 478.114 894.356C473.413 898.157 464.338 900.952 452.338 902.324C440.594 903.666 426.941 903.554 413.936 902.269C400.901 900.981 388.8 898.542 380.101 895.374C375.723 893.781 372.494 892.104 370.455 890.5C368.342 888.838 368.257 887.884 368.257 887.745C368.257 883.507 367.147 874.333 365.472 862.72C363.771 850.932 361.421 836.194 358.814 820.536C353.717 789.915 347.625 755.681 343.459 732.891L382.121 648.224L382.948 647.03ZM552.833 885.408L556.638 717.092L673.346 725.124L744.576 782.478L624.055 892.287C604.592 889.548 578.036 886.607 552.833 885.408ZM662.911 910.054L637.841 893.254L752.608 788.689L808.962 829.803L704.356 932.242L662.911 910.054ZM713.597 937.189L817.153 835.779L890.441 889.247L788.412 988.047L731.919 946.998L713.597 937.189ZM796.625 994.015L898.64 895.228L963.393 942.469L860.007 1040.07L796.625 994.015ZM868.239 1046.05L971.61 948.464L1036.34 995.69L932.771 1090.9L896.619 1066.67L868.239 1046.05ZM1199.14 1213.24L1225.16 1221.94L1640.77 1325.98L1199.14 1213.24ZM462.931 532.381C475.797 516.201 493.621 496.754 511.982 482.438C523.035 473.819 533.98 467.3 543.926 464.315C553.78 461.357 562.108 461.997 568.851 466.813L685.3 549.991L601.85 618.606L462.931 532.381ZM693.726 556.009L606.129 628.034L560.114 707.307L673.539 715.114L783.193 619.915L693.726 556.009ZM1875.07 1236.25L1921.24 1113.21L1839.85 1092.07L1793.76 1214.69L1875.07 1236.25ZM1830.12 1089.54L1784.04 1212.11L1657.56 1178.57L1707.62 1057.73L1830.12 1089.54ZM1697.85 1055.19L1647.81 1175.99L1534.05 1145.82L1593.7 1030.28L1585.36 1025.98L1697.85 1055.19ZM1584.75 1025.82L1524.16 1143.2L1450.46 1123.65L1497.62 1003.19L1584.75 1025.82ZM1440.73 1121.07L1487.87 1000.66L1400.61 977.993L1353.94 1098.06L1440.73 1121.07ZM1344.22 1095.48L1390.86 975.462L1275.49 945.497L1208.89 1059.59L1344.22 1095.48ZM1265.44 942.885L1198.39 1057.74H1166.51L1050.94 995.987L1167.23 893.631L1257.95 940.941L1265.44 942.885ZM683.05 720.099L752.084 775.685L857.63 681.105L785.599 631.069L683.05 720.099ZM866.071 686.968L760.194 781.845L816.401 822.852L925.138 727.999L866.071 686.968ZM933.606 733.881L824.685 828.895L897.791 882.23L1004.06 782.82L933.606 733.881ZM1012.46 788.655L906.015 888.23L970.857 935.536L1080.61 835.996L1012.46 788.655ZM1089.04 841.851L979.106 941.555L1043.92 988.841L1157.16 889.172L1089.04 841.851ZM941.74 1096.24L1074.95 1170.26L1157.66 1064.35L1043.05 1003.11L941.74 1096.24ZM1167.7 1067.74L1084.91 1173.75L1234.84 1212.03L1268.15 1085.66L1200.61 1067.74H1167.7ZM1277.82 1088.22L1244.53 1214.51L1329.78 1236.27L1373.23 1113.52L1277.82 1088.22ZM1382.93 1116.09L1339.51 1238.75L1426.98 1261.09L1478.38 1141.4L1382.93 1116.09ZM1488.15 1143.99L1436.79 1263.59L1544.9 1291.19L1582.93 1169.13L1488.15 1143.99ZM1554.6 1293.66L1672.97 1323.89L1712.54 1203.5L1592.61 1171.69L1554.6 1293.66ZM1722.22 1206.07L1682.68 1326.36L1767.16 1347.93L1816.89 1231.17L1722.22 1206.07ZM1826.66 1233.76L1776.97 1350.43L1861.43 1372L1895.71 1252.07L1826.66 1233.76ZM1905.38 1254.64L1871.12 1374.47L1952.61 1395.28L1994.71 1278.32L1905.38 1254.64ZM2004.41 1280.9L1962.34 1397.76L2040.45 1417.7L2078.38 1300.51L2004.41 1280.9ZM2088.06 1303.08L2050.15 1420.18L2133.84 1441.54L2182.39 1328.09L2088.06 1303.08ZM2192.15 1330.68L2143.65 1444.05L2229.3 1465.91L2269.26 1351.13L2192.15 1330.68ZM2278.96 1353.7L2239.02 1468.39L2345.54 1495.59L2348.74 1494.75L2443.64 1421.32C2450.44 1415.08 2457.23 1408.85 2463.89 1402.74L2278.96 1353.7ZM2472.65 1394.72L2354.83 1363.47L2398.38 1243.8L2500.4 1271.66C2517.2 1280.66 2534.84 1297.2 2537.01 1317.9C2537.29 1320.59 2537.32 1323.41 2537.03 1326.34C2535.82 1333.37 2532.22 1340.42 2524.9 1347.04C2512.66 1358.12 2493.67 1375.46 2472.65 1394.72ZM2345.12 1360.9L2388.7 1241.16L2310.69 1219.85L2261.56 1338.74L2345.12 1360.9ZM2251.81 1336.15L2300.97 1217.19L2207.38 1191.63L2163.33 1312.69L2251.81 1336.15ZM2153.62 1310.12L2197.7 1188.99L2126.15 1169.45L2075.12 1289.3L2153.62 1310.12ZM2065.35 1286.71L2116.41 1166.79L2028.49 1142.77L1979.95 1264.06L2065.35 1286.71ZM1970.21 1261.48L2018.78 1140.12L1930.84 1116.1L1884.78 1238.83L1970.21 1261.48Z" fill="#DB1A1A"/>
<path fill-rule="evenodd" clip-rule="evenodd" d="M2728.26 1356.24C2786.8 1356.24 2834.26 1314.83 2834.26 1263.74C2834.26 1212.66 2786.8 1171.24 2728.26 1171.24C2669.71 1171.24 2622.26 1212.66 2622.26 1263.74C2622.26 1314.83 2669.71 1356.24 2728.26 1356.24ZM2728.26 1355.24C2786.38 1355.24 2833.26 1314.15 2833.26 1263.74C2833.26 1213.33 2786.38 1172.24 2728.26 1172.24C2670.14 1172.24 2623.26 1213.33 2623.26 1263.74C2623.26 1314.15 2670.14 1355.24 2728.26 1355.24Z" fill="#DB1A1A"/>
<path fill-rule="evenodd" clip-rule="evenodd" d="M410.264 0L1375.42 696.638L2709.42 1041.12L3108.46 964.923L3353.16 1144.88L3235.57 1494.61L2650.93 2010.5L2550.64 2023.94L1836.63 1577.62L1560.5 1553.7L950.87 1418.95L592.358 1201.24H515.673L197.32 1763.7L0 685.792L410.264 0ZM1844.55 1570.78L1988.96 1661.05L2126.21 1542.64C2068.14 1527.97 1982.47 1506.34 1883.16 1481.29L1844.55 1570.78ZM1873.34 1478.81C1795.55 1459.18 1709.82 1437.56 1622.7 1415.59L1568.53 1544.36L1835.1 1567.45L1873.34 1478.81ZM1558.27 1542.96L1612.89 1413.12L1497.47 1384.01L1450.33 1519.1L1558.27 1542.96ZM1440.5 1516.93L1487.74 1381.56L1401.48 1359.81L1353.82 1497.77L1440.5 1516.93ZM1343.99 1495.6L1391.75 1357.35C1362.71 1350.03 1334.19 1342.84 1306.47 1335.85L1257.34 1476.45L1343.99 1495.6ZM1247.5 1474.27L1296.73 1333.4L1216.14 1313.08L1171.63 1457.5L1247.5 1474.27ZM1161.84 1455.34L1206.43 1310.63C1175.63 1302.87 1146.5 1295.52 1119.51 1288.72L1069.79 1434.99L1161.84 1455.34ZM1059.96 1432.82L1109.95 1285.77L1006.67 1248.26L912.398 1383.89L954.645 1409.54L1059.96 1432.82ZM903.834 1378.69L997.726 1243.6L906.131 1183.27L792.963 1311.36L903.834 1378.69ZM784.279 1306.09L897.696 1177.71L824.354 1129.41L717.666 1265.64L784.279 1306.09ZM709.058 1260.41L815.974 1123.89L753.177 1082.52L637.399 1216.9L709.058 1260.41ZM628.733 1211.63L744.756 1076.98L650.036 1014.59L650.534 1015.02L537.257 1145.61V1191.24H595.156L628.733 1211.63ZM527.257 1191.24V1141.88L642.167 1009.4L626.292 998.948L625.774 998.266C624.706 996.858 621.764 994.445 615.744 991.865C609.858 989.342 601.445 986.838 589.995 984.952C567.098 981.182 532.419 979.947 482.329 985.711C381.625 997.3 291.847 1011.19 259.596 1016.67L254.843 1017.48L251.336 1000.61L70.6595 1016.25L202.194 1734.79L509.842 1191.24H527.257ZM68.8508 1006.37L249.287 990.748L230.261 899.199L51.9008 913.777L68.8508 1006.37ZM50.0912 903.892L228.211 889.333L212.295 812.751L37.22 833.58L50.0912 903.892ZM35.4158 823.724L210.157 802.934C206.037 783.559 202.43 754.41 203.972 724.447L11.4542 692.829L35.4158 823.724ZM13.3225 683.002L204.684 714.43C207.178 687.152 214.392 659.477 230.286 638.705C231.559 637.042 232.824 635.343 234.08 633.612L81.4958 569.044L13.3225 683.002ZM86.6795 560.379L239.941 625.234C251.425 608.243 262.154 589.115 273.182 569.453C279.204 558.718 285.314 547.824 291.686 537.031L140.683 470.108L86.6795 560.379ZM145.855 461.462L296.864 528.388C316.896 495.482 339.589 464.762 369.18 446.96C370.313 446.277 371.431 445.591 372.531 444.9L197.598 374.969L145.855 461.462ZM202.797 366.278L382.589 438.152C406.597 420.908 420.581 401.988 424.823 385.065C426.991 376.417 426.621 368.316 423.833 361.061C421.044 353.803 415.71 347.067 407.422 341.363C377.936 321.067 307.267 274.605 271.595 251.276L202.797 366.278ZM276.733 242.688C312.279 265.932 383.4 312.688 413.092 333.125C422.793 339.802 429.553 348.067 433.168 357.474C436.783 366.883 437.127 377.109 434.523 387.496C429.349 408.135 412.566 429.484 386.115 447.906C382.386 450.503 378.459 453.047 374.335 455.528C345.889 472.642 323.661 503.136 303.152 537.316C296.077 549.109 289.174 561.407 282.297 573.658L282.295 573.662C270.331 594.977 258.445 616.152 245.865 634.282C243.361 637.89 240.818 641.398 238.228 644.782C222.995 664.69 216.169 692.421 214.222 720.589C211.918 753.928 216.513 786.942 221.118 806.074L221.137 806.15L262.673 1006.01C298.506 1000.05 384.86 986.862 481.186 975.777C531.896 969.941 567.55 971.122 591.62 975.085C603.653 977.067 612.881 979.758 619.683 982.673C625.876 985.327 630.451 988.334 633.153 991.493L1007.02 1237.74L1117.73 1277.96C1134.61 1282.21 1152.37 1286.69 1170.86 1291.35L1213.98 1302.22C1242.85 1309.5 1273.15 1317.14 1304.48 1325.04C1335.27 1332.8 1367.06 1340.81 1399.48 1348.99C1431 1356.94 1463.11 1365.03 1495.48 1373.19C1518.88 1379.1 1542.41 1385.03 1565.96 1390.97L1620.98 1404.84C1711.66 1427.71 1800.95 1450.23 1881.48 1470.55C1988.01 1497.43 2079.21 1520.44 2137.98 1535.3C2173.83 1544.36 2197.64 1550.39 2205.5 1552.4C2221.52 1556.5 2233.04 1562.35 2239.88 1570.34C2246.99 1578.64 2248.48 1588.57 2245.86 1599.19C2243.31 1609.56 2236.82 1620.77 2227.77 1632.57C2219.56 1643.27 2209.02 1654.75 2196.79 1666.86L2275.6 1729.72C2284.56 1721.84 2294.23 1713.34 2304.46 1704.36C2323.97 1687.23 2345.51 1668.35 2367.97 1648.7C2410.84 1611.2 2457.07 1570.89 2498.98 1534.59C2525.81 1511.35 2550.88 1489.76 2572.17 1471.59C2605.23 1443.38 2629.52 1423.14 2636.95 1418.1C2641.7 1414.89 2647.63 1413.13 2654.04 1412.2C2660.49 1411.27 2667.76 1411.15 2675.46 1411.47C2686.83 1411.94 2699.61 1413.41 2712.5 1414.89L2712.5 1414.89C2716.95 1415.41 2721.42 1415.92 2725.85 1416.4C2743.32 1418.27 2760.28 1419.56 2774.61 1418.11C2789.03 1416.66 2799.69 1412.55 2805.81 1404.68C2818.7 1388.07 2840.42 1379.32 2861.39 1374.89C2882.51 1370.43 2903.85 1370.14 2917.18 1371.26L2917.65 1371.3L2918.11 1371.43C2953.1 1381.26 3037.21 1404.2 3093.89 1417.37C3111.23 1421.4 3123.48 1429.5 3131.71 1439.95C3139.88 1450.33 3143.82 1462.67 3145.2 1474.84C3147.22 1492.71 3143.77 1510.69 3139.47 1522.9L3139.03 1524.17L2567.91 2011.53L2646.59 2000.99L3226.94 1488.88L3341.35 1148.61L3315.21 1129.38L3285.75 1212.02L3285.4 1212.55C3272 1232.3 3249.37 1259.95 3225.06 1278.3C3213.04 1287.37 3200.23 1294.46 3187.65 1296.93C3175.29 1299.35 3163.13 1297.29 3152.6 1288.49L2964 1262.12L2912.31 1242.4L2911.83 1239.59C2908.53 1220.46 2898.18 1190.72 2877.88 1164.32C2857.66 1138.01 2827.7 1115.18 2785.06 1109.2C2755.24 1105.01 2730.57 1103.93 2709.55 1105.17C2653.65 1108.45 2622.92 1128.1 2588.52 1150.91C2577.02 1158.54 2558.5 1161.16 2537.49 1161.1C2516.19 1161.04 2491.22 1158.21 2465.93 1153.99C2432.17 1148.36 2397.58 1140.22 2369.95 1132.74C2361.57 1130.47 2353.81 1128.25 2346.91 1126.19L2346.82 1126.16L1358.86 869.047L1358.73 869.005C1340.36 863.112 1314.97 854.1 1288.37 843.249C1262.69 832.773 1235.77 820.541 1212.94 807.703C1190.31 794.977 1170.98 781.277 1161.2 767.662C1159.94 765.913 1156.99 762.831 1152.1 758.353C1147.32 753.968 1140.95 748.494 1133.13 742.023C1115.47 727.402 1090.59 707.849 1060.22 684.576C1036.94 666.745 1010.46 646.745 981.566 625.129C958.098 607.574 933.038 588.956 906.807 569.568C884.991 553.445 862.367 536.79 839.177 519.775C815.971 502.748 792.198 485.361 768.103 467.783C736.546 444.763 704.437 421.417 672.322 398.13C637.09 372.582 601.853 347.105 567.332 322.206C543.41 304.951 519.831 287.974 496.838 271.443C472.596 254.013 449.004 237.08 426.345 220.84C391.995 196.222 359.789 173.2 330.71 152.461L276.733 242.688ZM335.86 143.852C364.147 164.025 395.408 186.369 428.733 210.249L536.363 103.349L413.25 14.4878L335.86 143.852ZM544.581 109.281L436.976 216.157C457.107 230.588 477.951 245.549 499.312 260.905L609.448 156.101L544.581 109.281ZM617.697 162.055L507.575 266.846C527.972 281.514 548.812 296.521 569.931 311.751L684.275 210.111L617.697 162.055ZM692.582 216.107L578.24 317.745C610.045 340.69 642.427 364.104 674.824 387.591L784.946 282.774L692.582 216.107ZM793.195 288.728L683.056 393.561C712.428 414.865 741.773 436.203 770.673 457.28L882.878 353.46L793.195 288.728ZM891.149 359.43L778.906 463.287C800.206 478.83 821.24 494.217 841.841 509.327L957.265 407.152L891.149 359.43ZM965.575 413.15L850.09 515.38C870.482 530.349 890.422 545.03 909.742 559.303L1035.8 463.84L965.575 413.15ZM1044.29 469.962L918.124 565.5C941.277 582.623 963.486 599.127 984.458 614.805L1108 515.949L1044.29 469.962ZM1116.41 522.023L992.729 620.993C1018.27 640.117 1041.85 657.935 1062.92 674.052L1177.43 566.061L1116.41 522.023ZM1185.68 572.02L1070.96 680.214C1097.42 700.532 1119.56 717.926 1136.13 731.529L1254.39 621.612L1185.68 572.02ZM1262.66 627.58L1143.89 737.966C1149.83 742.947 1154.85 747.306 1158.86 750.979C1163.71 755.429 1167.38 759.137 1169.32 761.826C1177.72 773.513 1195.31 786.318 1217.84 798.987C1239.02 810.896 1263.95 822.353 1288.19 832.367L1366.6 702.602L1262.66 627.58ZM1375.61 707.016L1297.57 836.184C1321.87 845.929 1344.78 854.024 1361.65 859.44L1451.3 882.77L1509.45 741.577L1375.61 707.016ZM1519.22 744.101L1461.06 885.312L1545.24 907.219L1601.52 765.353L1519.22 744.101ZM1611.28 767.873L1554.99 909.757L1647.56 933.847L1697.74 790.201L1611.28 767.873ZM1707.46 792.71L1657.27 936.374L1764.43 964.264L1817.16 821.037L1707.46 792.71ZM1826.89 823.55L1774.15 966.794L1893.54 997.864L1943.27 853.603L1826.89 823.55ZM1952.98 856.112L1903.24 1000.39L1986.25 1021.99L2037.22 877.866L1952.98 856.112ZM2046.94 880.376L1995.97 1024.52L2081.51 1046.78L2130.3 901.903L2046.94 880.376ZM2140.01 904.409L2091.21 1049.31L2175.07 1071.13L2225.98 926.61L2140.01 904.409ZM2235.7 929.119L2184.78 1073.66L2272.45 1096.48L2319.37 950.727L2235.7 929.119ZM2329.07 953.231L2282.14 1099L2349.6 1116.56L2349.69 1116.58C2355.27 1118.25 2361.43 1120.02 2368.04 1121.85L2417.78 976.139L2329.07 953.231ZM2427.49 978.647L2377.72 1124.46C2403.02 1131.18 2433.44 1138.25 2463.4 1143.42L2512.36 1000.56L2427.49 978.647ZM2522.07 1003.07L2473.41 1145.08C2496.37 1148.71 2518.57 1151.05 2537.52 1151.1C2558.35 1151.16 2574.18 1148.42 2582.99 1142.58C2616.8 1120.16 2648.55 1099.76 2704.26 1095.5V1050.12L2522.07 1003.07ZM2714.26 1050.38V1094.92C2734.86 1094.1 2758.54 1095.38 2786.45 1099.29C2832.21 1105.71 2864.34 1130.3 2885.81 1158.22C2906.25 1184.81 2917.15 1214.56 2921.17 1235.07L2962.32 1250.77L3060.99 984.169L2714.26 1050.38ZM3072.47 981.978L3022.16 1117.92L3284.5 1185.76L3306.8 1123.2L3106.05 975.564L3072.47 981.978ZM3281.13 1195.22L3018.67 1127.34L2989.43 1206.34L3220.97 1268.84C3243.15 1251.56 3264.03 1226.14 3276.76 1207.46L3281.13 1195.22ZM3210.4 1276.34L2985.94 1215.76L2972.1 1253.15L3156.96 1279L3158.09 1280.02C3166.21 1287.28 3175.5 1289.11 3185.73 1287.11C3193.55 1285.58 3201.9 1281.78 3210.4 1276.34ZM2551.3 2012.56L2362.19 1894.35L2440.23 1814.84L2447.93 1807.79L2622.72 1951.61L2551.3 2012.56ZM2630.45 1945.02L2701.34 1884.52L2519.08 1742.77L2505.63 1754.93L2505.61 1754.95L2455.38 1800.97L2630.45 1945.02ZM2501.97 1744.76L2558.15 1693.93L2436.09 1602.49C2416.96 1619.16 2397.78 1635.91 2379.18 1652.18L2501.97 1744.76ZM2371.49 1658.9C2351.84 1676.1 2332.94 1692.66 2315.54 1707.94L2436.54 1804.67L2494.45 1751.62L2371.49 1658.9ZM2429.31 1811.69L2307.91 1714.64C2297.65 1723.65 2287.98 1732.15 2279.06 1740L2275.91 1742.77L2232.75 1708.33L2164.95 1771.06L2353.5 1888.92L2429.31 1811.69ZM2156.17 1765.57L2224.84 1702.02L2181.71 1667.62L2185.77 1663.66C2199.56 1650.24 2211.15 1637.8 2219.84 1626.48C2228.57 1615.09 2234.08 1605.18 2236.15 1596.8C2238.16 1588.67 2236.9 1582.23 2232.29 1576.84C2227.41 1571.14 2218.25 1565.99 2203.02 1562.09C2195.36 1560.13 2172.51 1554.34 2138.05 1545.63L1997.84 1666.6L2156.17 1765.57ZM2443.8 1595.77L2565.71 1687.1L2621.95 1636.22L2502.45 1544.81C2483.51 1561.23 2463.72 1578.42 2443.8 1595.77ZM2510.17 1538.13L2629.49 1629.39L2691.8 1573.02L2575.55 1481.86C2556.22 1498.37 2533.95 1517.55 2510.17 1538.13ZM2583.31 1475.24L2699.33 1566.21L2904.36 1380.71C2892.62 1380.63 2877.95 1381.61 2863.45 1384.67C2843.28 1388.94 2824.42 1397.02 2813.71 1410.81C2805.07 1421.94 2790.99 1426.51 2775.61 1428.06C2760.14 1429.62 2742.26 1428.22 2724.79 1426.34C2720.15 1425.84 2715.55 1425.31 2711.02 1424.79L2711.02 1424.79C2698.25 1423.32 2686.02 1421.91 2675.04 1421.46C2667.65 1421.15 2661.06 1421.29 2655.47 1422.1C2649.84 1422.91 2645.57 1424.35 2642.56 1426.38C2636.04 1430.8 2614.2 1448.92 2583.31 1475.24ZM2918.06 1381.8C2954.53 1392.01 3036.1 1414.21 3091.63 1427.11C3106.98 1430.68 3117.17 1437.65 3123.85 1446.14C3129.1 1452.79 3132.35 1460.59 3134.11 1468.84L2982.77 1433.58L2912.39 1386.94L2918.06 1381.8ZM2904.73 1393.87L2842.9 1449.81L3029.71 1604.31L3130.47 1518.33C3133.9 1508.07 3136.58 1493.77 3135.58 1479.45L2978.75 1442.91L2904.73 1393.87ZM3021.98 1610.9L2835.4 1456.59L2764.11 1521.09L2947.72 1674.28L3021.98 1610.9ZM2940 1680.86L2756.62 1527.87L2680.73 1596.52L2865.13 1744.75L2940 1680.86ZM2857.39 1751.36L2673.22 1603.31L2605.54 1664.55L2785.7 1812.54L2857.39 1751.36ZM2777.97 1819.13L2598.04 1671.33L2526.61 1735.95L2709.11 1877.89L2777.97 1819.13Z" fill="#DB1A1A"/>
</g>
<defs>
<clipPath id="clip0_49_428">
<rect width="3353" height="2024" fill="white"/>
</clipPath>
</defs>
</svg>
