<svg width="3353" height="2024" viewBox="0 0 3353 2024" fill="none" xmlns="http://www.w3.org/2000/svg">
    <g clip-path="url(#clip0_49_428)">
    <rect width="3353" height="2024" fill="white"></rect>
    <path data-block="1" data-lot="15" id="test-1" d="M1988.96 1661.05L1844.55 1570.78L1883.16 1481.29C1982.47 1506.34 2068.14 1527.97 2126.21 1542.64L1988.96 1661.05Z" fill="#D9D9D9"></path>
    <path data-block="1" data-lot="16" id="test-2" d="M1622.7 1415.59C1709.82 1437.56 1795.55 1459.18 1873.34 1478.81L1835.1 1567.45L1568.53 1544.36L1622.7 1415.59Z" fill="#D9D9D9"></path>
    <path data-block="1" data-lot="17" id="test-3" d="M1612.89 1413.12L1558.27 1542.96L1450.33 1519.1L1497.47 1384.01L1612.89 1413.12Z" fill="#D9D9D9"></path>
    <path data-block="1" data-lot="18" id="test-4" d="M1487.74 1381.56L1440.5 1516.93L1353.82 1497.77L1401.48 1359.81L1487.74 1381.56Z" fill="#D9D9D9"></path>
    <path data-block="1" data-lot="19" id="test-5" d="M1391.75 1357.35L1343.99 1495.6L1257.34 1476.45L1306.47 1335.85C1334.19 1342.84 1362.71 1350.03 1391.75 1357.35Z" fill="#D9D9D9"></path>
    <path data-block="1" data-lot="20" id="test-6" d="M1296.73 1333.4L1247.5 1474.27L1171.63 1457.5L1216.14 1313.08L1296.73 1333.4Z" fill="#D9D9D9"></path>
    <path data-block="1" data-lot="21" id="test-7" d="M1206.43 1310.63L1161.84 1455.34L1069.79 1434.99L1119.51 1288.72C1146.5 1295.52 1175.63 1302.87 1206.43 1310.63Z" fill="#D9D9D9"></path>
    <path data-block="1" data-lot="22" id="test-8" d="M1109.95 1285.77L1059.96 1432.82L954.645 1409.54L912.398 1383.89L1006.67 1248.26L1109.95 1285.77Z" fill="#D9D9D9"></path>
    <path data-block="1" data-lot="23" id="test-9" d="M997.726 1243.6L903.834 1378.69L792.963 1311.36L906.131 1183.27L997.726 1243.6Z" fill="#D9D9D9"></path>
    <path data-block="1" data-lot="24" id="test-10" d="M897.696 1177.71L784.279 1306.09L717.666 1265.64L824.354 1129.41L897.696 1177.71Z" fill="#D9D9D9"></path>
    <path data-block="1" data-lot="25" id="test-11" d="M815.974 1123.89L709.058 1260.41L637.399 1216.9L753.177 1082.52L815.974 1123.89Z" fill="#D9D9D9"></path>
    <path data-block="1" data-lot="26" id="test-12" d="M744.756 1076.98L628.733 1211.63L595.156 1191.24H537.257V1145.61L650.534 1015.02L650.036 1014.59L744.756 1076.98Z" fill="#D9D9D9"></path>
    <path id="test-13" d="M161.292 1328.77L136.949 1202.89L328.63 1182.36L350.422 1308.14L161.292 1328.77Z" fill="#D9D9D9" class="invalid"></path>
    <path id="test-14" fill-rule="evenodd" clip-rule="evenodd" d="M527.257 1141.88V1191.24H509.842L202.194 1734.79L70.6595 1016.25L251.336 1000.61L254.843 1017.48L259.596 1016.67C291.847 1011.19 381.625 997.3 482.329 985.711C532.419 979.947 567.098 981.182 589.995 984.952C601.445 986.838 609.858 989.342 615.744 991.865C621.764 994.445 624.706 996.858 625.774 998.266L626.292 998.948L642.167 1009.4L527.257 1141.88ZM299.415 1046.21L110.695 1067.12L135.044 1193.03L326.92 1172.48L304.331 1042.1L314.184 1040.39L362.093 1316.92L153.222 1339.71L98.819 1058.37L298.314 1036.27L299.415 1046.21Z" fill="#D9D9D9" class="invalid"></path>
    <path data-block="1" data-lot="27" id="test-15" d="M249.287 990.748L68.8508 1006.37L51.9008 913.777L230.261 899.199L249.287 990.748Z" fill="#D9D9D9"></path>
    <path data-block="1" data-lot="28" id="test-16" d="M228.211 889.333L50.0912 903.892L37.22 833.58L212.295 812.751L228.211 889.333Z" fill="#D9D9D9"></path>
    <path data-block="1" data-lot="29" id="test-17" d="M210.157 802.934L35.4158 823.724L11.4542 692.829L203.972 724.447C202.43 754.41 206.037 783.559 210.157 802.934Z" fill="#D9D9D9"></path>
    <path data-block="1" data-lot="30" id="test-18" d="M204.684 714.43L13.3225 683.002L81.4958 569.044L234.08 633.612C232.824 635.343 231.559 637.042 230.286 638.705C214.392 659.477 207.178 687.152 204.684 714.43Z" fill="#D9D9D9"></path>
    <path data-block="1" data-lot="31" id="test-19" d="M239.941 625.234L86.6795 560.379L140.683 470.108L291.686 537.031C285.314 547.824 279.204 558.718 273.182 569.453C262.154 589.115 251.425 608.243 239.941 625.234Z" fill="#D9D9D9"></path>
    <path data-block="1" data-lot="32" id="test-20" d="M296.864 528.388L145.855 461.462L197.598 374.969L372.531 444.9C371.431 445.591 370.313 446.277 369.18 446.96C339.589 464.762 316.896 495.482 296.864 528.388Z" fill="#D9D9D9"></path>
    <path data-block="1" data-lot="33" id="test-21" d="M382.589 438.152L202.797 366.278L271.595 251.276C307.267 274.605 377.936 321.067 407.422 341.363C415.71 347.067 421.044 353.803 423.833 361.061C426.621 368.316 426.991 376.417 424.823 385.065C420.581 401.988 406.597 420.908 382.589 438.152Z" fill="#D9D9D9"></path>
    <path data-block="3" data-lot="21" id="test-22" d="M455.828 541.649C456.145 541.218 456.468 540.782 456.796 540.342L595.496 626.432L549.631 705.446L388.765 638.618L455.828 541.649Z" fill="#D9D9D9"></path>
    <path data-block="3" data-lot="22-23" id="test-23" d="M546.681 715.049L382.948 647.03L382.121 648.224L343.459 732.891C347.625 755.681 353.717 789.915 358.814 820.536C361.421 836.194 363.771 850.932 365.472 862.72C367.147 874.333 368.257 883.507 368.257 887.745C368.257 887.884 368.342 888.838 370.455 890.5C372.494 892.104 375.723 893.781 380.101 895.374C388.8 898.542 400.901 900.981 413.936 902.269C426.941 903.554 440.594 903.666 452.338 902.324C464.338 900.952 473.413 898.157 478.114 894.356C481.224 891.842 485.405 890.087 489.997 888.805C494.655 887.504 500.111 886.589 506.068 885.968C516.791 884.851 529.51 884.648 542.839 885.026L546.681 715.049Z" fill="#D9D9D9"></path>
    <path data-block="3" data-lot="24" id="test-24" d="M556.638 717.092L552.833 885.408C578.036 886.607 604.592 889.548 624.055 892.287L744.576 782.478L673.346 725.124L556.638 717.092Z" fill="#D9D9D9"></path>
    <path data-block="3" data-lot="25" id="test-25" d="M637.841 893.254L662.911 910.054L704.356 932.242L808.962 829.803L752.608 788.689L637.841 893.254Z" fill="#D9D9D9"></path>
    <path data-block="3" data-lot="26" id="test-26" d="M817.153 835.779L713.597 937.189L731.919 946.998L788.412 988.047L890.441 889.247L817.153 835.779Z" fill="#D9D9D9"></path>
    <path data-block="3" data-lot="27" id="test-27" d="M898.64 895.228L796.625 994.015L860.007 1040.07L963.393 942.469L898.64 895.228Z" fill="#D9D9D9"></path>
    <path data-block="3" data-lot="28" id="test-28" d="M971.61 948.464L868.239 1046.05L896.619 1066.67L932.771 1090.9L1036.34 995.69L971.61 948.464Z" fill="#D9D9D9"></path>
    <path   id="test-29" d="M1225.16 1221.94L1199.14 1213.24L1640.77 1325.98L1225.16 1221.94Z" fill="#D9D9D9"></path>
    <path data-block="3" data-lot="20" id="test-30" d="M511.982 482.438C493.621 496.754 475.797 516.201 462.931 532.381L601.85 618.606L685.3 549.991L568.851 466.813C562.108 461.997 553.78 461.357 543.926 464.315C533.98 467.3 523.035 473.819 511.982 482.438Z" fill="#D9D9D9"></path>
    <path data-block="3" data-lot="19" id="test-31" d="M606.129 628.034L693.726 556.009L783.193 619.915L673.539 715.114L560.114 707.307L606.129 628.034Z" fill="#D9D9D9"></path>
    <path data-block="3" data-lot="7" id="test-32" d="M1921.24 1113.21L1875.07 1236.25L1793.76 1214.69L1839.85 1092.07L1921.24 1113.21Z" fill="#D9D9D9"></path>
    <path data-block="3" data-lot="8" id="test-33" d="M1784.04 1212.11L1830.12 1089.54L1707.62 1057.73L1657.56 1178.57L1784.04 1212.11Z" fill="#D9D9D9"></path>
    <path data-block="3" data-lot="9" id="test-34" d="M1647.81 1175.99L1697.85 1055.19L1585.36 1025.98L1593.7 1030.28L1534.05 1145.82L1647.81 1175.99Z" fill="#D9D9D9"></path>
    <path data-block="3" data-lot="10" id="test-35" d="M1524.16 1143.2L1584.75 1025.82L1497.62 1003.19L1450.46 1123.65L1524.16 1143.2Z" fill="#D9D9D9"></path>
    <path data-block="3" data-lot="11" id="test-36" d="M1487.87 1000.66L1440.73 1121.07L1353.94 1098.06L1400.61 977.993L1487.87 1000.66Z" fill="#D9D9D9"></path>
    <path data-block="3" data-lot="12" id="test-37" d="M1390.86 975.462L1344.22 1095.48L1208.89 1059.59L1275.49 945.497L1390.86 975.462Z" fill="#D9D9D9"></path>
    <path data-block="3" data-lot="13" id="test-38" d="M1198.39 1057.74L1265.44 942.885L1257.95 940.941L1167.23 893.631L1050.94 995.987L1166.51 1057.74H1198.39Z" fill="#D9D9D9"></path>
    <path data-block="3" data-lot="18" id="test-39" d="M752.084 775.685L683.05 720.099L785.599 631.069L857.63 681.105L752.084 775.685Z" fill="#D9D9D9"></path>
    <path data-block="3" data-lot="17" id="test-40" d="M760.194 781.845L866.071 686.968L925.138 727.999L816.401 822.852L760.194 781.845Z" fill="#D9D9D9"></path>
    <path data-block="3" data-lot="16" id="test-41" d="M824.685 828.895L933.606 733.881L1004.06 782.82L897.791 882.23L824.685 828.895Z" fill="#D9D9D9"></path>
    <path data-block="3" data-lot="15" id="test-42" d="M906.015 888.23L1012.46 788.655L1080.61 835.996L970.857 935.536L906.015 888.23Z" fill="#D9D9D9"></path>
    <path data-block="3" data-lot="14" id="test-43" d="M979.106 941.555L1089.04 841.851L1157.16 889.172L1043.92 988.841L979.106 941.555Z" fill="#D9D9D9"></path>
    <path data-block="3" data-lot="29" id="test-44" d="M1074.95 1170.26L941.74 1096.24L1043.05 1003.11L1157.66 1064.35L1074.95 1170.26Z" fill="#D9D9D9"></path>
    <path data-block="3" data-lot="30" id="test-45" d="M1084.91 1173.75L1167.7 1067.74H1200.61L1268.15 1085.66L1234.84 1212.03L1084.91 1173.75Z" fill="#D9D9D9"></path>
    <path data-block="3" data-lot="31" id="test-46" d="M1244.53 1214.51L1277.82 1088.22L1373.23 1113.52L1329.78 1236.27L1244.53 1214.51Z" fill="#D9D9D9"></path>
    <path data-block="3" data-lot="32" id="test-47" d="M1339.51 1238.75L1382.93 1116.09L1478.38 1141.4L1426.98 1261.09L1339.51 1238.75Z" fill="#D9D9D9"></path>
    <path data-block="3" data-lot="33" id="test-48" d="M1436.79 1263.59L1488.15 1143.99L1582.93 1169.13L1544.9 1291.19L1436.79 1263.59Z" fill="#D9D9D9"></path>
    <path data-block="3" data-lot="34" id="test-49" d="M1672.97 1323.89L1554.6 1293.66L1592.61 1171.69L1712.54 1203.5L1672.97 1323.89Z" fill="#D9D9D9"></path>
    <path data-block="3" data-lot="35" id="test-50" d="M1682.68 1326.36L1722.22 1206.07L1816.89 1231.17L1767.16 1347.93L1682.68 1326.36Z" fill="#D9D9D9"></path>
    <path data-block="3" data-lot="36" id="test-51" d="M1776.97 1350.43L1826.66 1233.76L1895.71 1252.07L1861.43 1372L1776.97 1350.43Z" fill="#D9D9D9"></path>
    <path data-block="3" data-lot="37" id="test-52" d="M1871.12 1374.47L1905.38 1254.64L1994.71 1278.32L1952.61 1395.28L1871.12 1374.47Z" fill="#D9D9D9"></path>
    <path data-block="3" data-lot="38" id="test-53" d="M1962.34 1397.76L2004.41 1280.9L2078.38 1300.51L2040.45 1417.7L1962.34 1397.76Z" fill="#D9D9D9"></path>
    <path data-block="3" data-lot="39" id="test-54" d="M2050.15 1420.18L2088.06 1303.08L2182.39 1328.09L2133.84 1441.54L2050.15 1420.18Z" fill="#D9D9D9"></path>
    <path data-block="3" data-lot="40" id="test-55" d="M2143.65 1444.05L2192.15 1330.68L2269.26 1351.13L2229.3 1465.91L2143.65 1444.05Z" fill="#D9D9D9"></path>
    <path data-block="3" data-lot="41" id="test-56" d="M2239.02 1468.39L2278.96 1353.7L2463.89 1402.74C2457.23 1408.85 2450.44 1415.08 2443.64 1421.32L2348.74 1494.75L2345.54 1495.59L2239.02 1468.39Z" fill="#D9D9D9"></path>
    <path data-block="3" data-lot="1" id="test-57" d="M2354.83 1363.47L2472.65 1394.72C2493.67 1375.46 2512.66 1358.12 2524.9 1347.04C2532.22 1340.42 2535.82 1333.37 2537.03 1326.34C2537.32 1323.41 2537.29 1320.59 2537.01 1317.9C2534.84 1297.2 2517.2 1280.66 2500.4 1271.66L2398.38 1243.8L2354.83 1363.47Z" fill="#D9D9D9"></path>
    <path data-block="3" data-lot="2" id="test-58" d="M2388.7 1241.16L2345.12 1360.9L2261.56 1338.74L2310.69 1219.85L2388.7 1241.16Z" fill="#D9D9D9"></path>
    <path data-block="3" data-lot="3" id="test-59" d="M2300.97 1217.19L2251.81 1336.15L2163.33 1312.69L2207.38 1191.63L2300.97 1217.19Z" fill="#D9D9D9"></path>
    <path data-block="3" data-lot="4" id="test-60" d="M2197.7 1188.99L2153.62 1310.12L2075.12 1289.3L2126.15 1169.45L2197.7 1188.99Z" fill="#D9D9D9"></path>
    <path data-block="3" data-lot="5" id="test-61" d="M2116.41 1166.79L2065.35 1286.71L1979.95 1264.06L2028.49 1142.77L2116.41 1166.79Z" fill="#D9D9D9"></path>
    <path data-block="3" data-lot="6" id="test-62" d="M2018.78 1140.12L1970.21 1261.48L1884.78 1238.83L1930.84 1116.1L2018.78 1140.12Z" fill="#D9D9D9"></path>
    <path id="test-63" d="M2728.26 1355.24C2786.38 1355.24 2833.26 1314.15 2833.26 1263.74C2833.26 1213.33 2786.38 1172.24 2728.26 1172.24C2670.14 1172.24 2623.26 1213.33 2623.26 1263.74C2623.26 1314.15 2670.14 1355.24 2728.26 1355.24Z" fill="#D9D9D9"></path>
    <path data-block="2" data-lot="26" id="test-64" d="M428.733 210.249C395.408 186.369 364.147 164.025 335.86 143.852L413.25 14.4878L536.363 103.349L428.733 210.249Z" fill="#D9D9D9"></path>
    <path data-block="2" data-lot="25" id="test-65" d="M436.976 216.157L544.581 109.281L609.448 156.101L499.312 260.905C477.951 245.549 457.107 230.588 436.976 216.157Z" fill="#D9D9D9"></path>
    <path data-block="2" data-lot="24" id="test-66" d="M507.575 266.846L617.697 162.055L684.275 210.111L569.931 311.751C548.812 296.521 527.972 281.514 507.575 266.846Z" fill="#D9D9D9"></path>
    <path data-block="2" data-lot="23" id="test-67" d="M578.24 317.745L692.582 216.107L784.946 282.774L674.824 387.591C642.427 364.104 610.045 340.69 578.24 317.745Z" fill="#D9D9D9"></path>
    <path data-block="2" data-lot="22" id="test-68" d="M683.056 393.561L793.195 288.728L882.878 353.46L770.673 457.28C741.773 436.203 712.428 414.865 683.056 393.561Z" fill="#D9D9D9"></path>
    <path data-block="2" data-lot="21" id="test-69" d="M778.906 463.287L891.149 359.43L957.265 407.152L841.841 509.327C821.24 494.217 800.206 478.83 778.906 463.287Z" fill="#D9D9D9"></path>
    <path data-block="2" data-lot="20" id="test-70" d="M850.09 515.38L965.575 413.15L1035.8 463.84L909.742 559.303C890.422 545.03 870.482 530.349 850.09 515.38Z" fill="#D9D9D9"></path>
    <path data-block="2" data-lot="19" id="test-71" d="M918.124 565.5L1044.29 469.962L1108 515.949L984.458 614.805C963.486 599.127 941.277 582.623 918.124 565.5Z" fill="#D9D9D9"></path>
    <path data-block="2" data-lot="18" id="test-72" d="M992.729 620.993L1116.41 522.023L1177.43 566.061L1062.92 674.052C1041.85 657.935 1018.27 640.117 992.729 620.993Z" fill="#D9D9D9"></path>
    <path data-block="2" data-lot="17" id="test-73" d="M1070.96 680.214L1185.68 572.02L1254.39 621.612L1136.13 731.529C1119.56 717.926 1097.42 700.532 1070.96 680.214Z" fill="#D9D9D9"></path>
    <path data-block="2" data-lot="16" id="test-74" d="M1143.89 737.966L1262.66 627.58L1366.6 702.602L1288.19 832.367C1263.95 822.353 1239.02 810.896 1217.84 798.987C1195.31 786.318 1177.72 773.513 1169.32 761.826C1167.38 759.137 1163.71 755.429 1158.86 750.979C1154.85 747.306 1149.83 742.947 1143.89 737.966Z" fill="#D9D9D9"></path>
    <path data-block="2" data-lot="15" id="test-75" d="M1297.57 836.184L1375.61 707.016L1509.45 741.577L1451.3 882.77L1361.65 859.44C1344.78 854.024 1321.87 845.929 1297.57 836.184Z" fill="#D9D9D9"></path>
    <path data-block="2" data-lot="14" id="test-76" d="M1461.06 885.312L1519.22 744.101L1601.52 765.353L1545.24 907.219L1461.06 885.312Z" fill="#D9D9D9"></path>
    <path data-block="2" data-lot="13" id="test-77" d="M1554.99 909.757L1611.28 767.873L1697.74 790.201L1647.56 933.847L1554.99 909.757Z" fill="#D9D9D9"></path>
    <path data-block="2" data-lot="12" id="test-78" d="M1657.27 936.374L1707.46 792.71L1817.16 821.037L1764.43 964.264L1657.27 936.374Z" fill="#D9D9D9"></path>
    <path data-block="2" data-lot="11" id="test-79" d="M1774.15 966.794L1826.89 823.55L1943.27 853.603L1893.54 997.864L1774.15 966.794Z" fill="#D9D9D9"></path>
    <path data-block="2" data-lot="10" id="test-80" d="M1903.24 1000.39L1952.98 856.112L2037.22 877.866L1986.25 1021.99L1903.24 1000.39Z" fill="#D9D9D9"></path>
    <path data-block="2" data-lot="9" id="test-81" d="M1995.97 1024.52L2046.94 880.376L2130.3 901.903L2081.51 1046.78L1995.97 1024.52Z" fill="#D9D9D9"></path>
    <path data-block="2" data-lot="8" id="test-82" d="M2091.21 1049.31L2140.01 904.409L2225.98 926.61L2175.07 1071.13L2091.21 1049.31Z" fill="#D9D9D9"></path>
    <path data-block="2" data-lot="7" id="test-83" d="M2184.78 1073.66L2235.7 929.119L2319.37 950.727L2272.45 1096.48L2184.78 1073.66Z" fill="#D9D9D9"></path>
    <path data-block="2" data-lot="6" id="test-84" d="M2282.14 1099L2329.07 953.231L2417.78 976.139L2368.04 1121.85C2361.43 1120.02 2355.27 1118.25 2349.69 1116.58L2349.6 1116.56L2282.14 1099Z" fill="#D9D9D9"></path>
    <path data-block="2" data-lot="5" id="test-85" d="M2377.72 1124.46L2427.49 978.647L2512.36 1000.56L2463.4 1143.42C2433.44 1138.25 2403.02 1131.18 2377.72 1124.46Z" fill="#D9D9D9"></path>
    <path data-block="2" data-lot="4" id="test-86" d="M2473.41 1145.08L2522.07 1003.07L2704.26 1050.12V1095.5C2648.55 1099.76 2616.8 1120.16 2582.99 1142.58C2574.18 1148.42 2558.35 1151.16 2537.52 1151.1C2518.57 1151.05 2496.37 1148.71 2473.41 1145.08Z" fill="#D9D9D9"></path>
    <path data-block="2" data-lot="3" id="test-87" d="M2714.26 1094.92V1050.38L3060.99 984.169L2962.32 1250.77L2921.17 1235.07C2917.15 1214.56 2906.25 1184.81 2885.81 1158.22C2864.34 1130.3 2832.21 1105.71 2786.45 1099.29C2758.54 1095.38 2734.86 1094.1 2714.26 1094.92Z" fill="#D9D9D9"></path>
    <path data-block="2" data-lot="1" id="test-88" d="M3022.16 1117.92L3072.47 981.978L3106.05 975.564L3306.8 1123.2L3284.5 1185.76L3022.16 1117.92Z" fill="#D9D9D9"></path>
    <path data-block="2" data-lot="2" id="test-89" d="M3018.67 1127.34L3281.13 1195.22L3276.76 1207.46C3264.03 1226.14 3243.15 1251.56 3220.97 1268.84L2989.43 1206.34L3018.67 1127.34Z" fill="#D9D9D9"></path>
    <path id="test-90" d="M2985.94 1215.76L3210.4 1276.34C3201.9 1281.78 3193.55 1285.58 3185.73 1287.11C3175.5 1289.11 3166.21 1287.28 3158.09 1280.02L3156.96 1279L2972.1 1253.15L2985.94 1215.76Z" fill="#D9D9D9"></path>
    <path data-block="1" data-lot="1" id="test-91" d="M2362.19 1894.35L2551.3 2012.56L2622.72 1951.61L2447.93 1807.79L2440.23 1814.84L2362.19 1894.35Z" fill="#D9D9D9"></path>
    <path data-block="1" data-lot="2" id="test-92" d="M2701.34 1884.52L2630.45 1945.02L2455.38 1800.97L2505.61 1754.95L2505.63 1754.93L2519.08 1742.77L2701.34 1884.52Z" fill="#D9D9D9"></path>
    <path data-block="1" data-lot="11" id="test-93" d="M2558.15 1693.93L2501.97 1744.76L2379.18 1652.18C2397.78 1635.91 2416.96 1619.16 2436.09 1602.49L2558.15 1693.93Z" fill="#D9D9D9"></path>
    <path data-block="1" data-lot="12" id="test-94" d="M2315.54 1707.94C2332.94 1692.66 2351.84 1676.1 2371.49 1658.9L2494.45 1751.62L2436.54 1804.67L2315.54 1707.94Z" fill="#D9D9D9"></path>
    <path data-block="1" data-lot="13" id="test-95" d="M2307.91 1714.64L2429.31 1811.69L2353.5 1888.92L2164.95 1771.06L2232.75 1708.33L2275.91 1742.77L2279.06 1740C2287.98 1732.15 2297.65 1723.65 2307.91 1714.64Z" fill="#D9D9D9"></path>
    <path data-block="1" data-lot="14" id="test-96" d="M2224.84 1702.02L2156.17 1765.57L1997.84 1666.6L2138.05 1545.63C2172.51 1554.34 2195.36 1560.13 2203.02 1562.09C2218.25 1565.99 2227.41 1571.14 2232.29 1576.84C2236.9 1582.23 2238.16 1588.67 2236.15 1596.8C2234.08 1605.18 2228.57 1615.09 2219.84 1626.48C2211.15 1637.8 2199.56 1650.24 2185.77 1663.66L2181.71 1667.62L2224.84 1702.02Z" fill="#D9D9D9"></path>
    <path data-block="1" data-lot="10" id="test-97" d="M2565.71 1687.1L2443.8 1595.77C2463.72 1578.42 2483.51 1561.23 2502.45 1544.81L2621.95 1636.22L2565.71 1687.1Z" fill="#D9D9D9"></path>
    <path data-block="1" data-lot="9" id="test-98" d="M2629.49 1629.39L2510.17 1538.13C2533.95 1517.55 2556.22 1498.37 2575.55 1481.86L2691.8 1573.02L2629.49 1629.39Z" fill="#D9D9D9"></path>
    <path data-block="1" data-lot="8" id="test-99" d="M2699.33 1566.21L2583.31 1475.24C2614.2 1448.92 2636.04 1430.8 2642.56 1426.38C2645.57 1424.35 2649.84 1422.91 2655.47 1422.1C2661.06 1421.29 2667.65 1421.15 2675.04 1421.46C2686.02 1421.91 2698.25 1423.32 2711.02 1424.79L2711.02 1424.79C2715.55 1425.31 2720.15 1425.84 2724.79 1426.34C2742.26 1428.22 2760.14 1429.62 2775.61 1428.06C2790.99 1426.51 2805.07 1421.94 2813.71 1410.81C2824.42 1397.02 2843.28 1388.94 2863.45 1384.67C2877.95 1381.61 2892.62 1380.63 2904.36 1380.71L2699.33 1566.21Z" fill="#D9D9D9"></path>
    <path id="test-100" d="M3091.63 1427.11C3036.1 1414.21 2954.53 1392.01 2918.06 1381.8L2912.39 1386.94L2982.77 1433.58L3134.11 1468.84C3132.35 1460.59 3129.1 1452.79 3123.85 1446.14C3117.17 1437.65 3106.98 1430.68 3091.63 1427.11Z" fill="#D9D9D9"></path>
    <path data-block="1" data-lot="7" id="test-101" d="M2842.9 1449.81L2904.73 1393.87L2978.75 1442.91L3135.58 1479.45C3136.58 1493.77 3133.9 1508.07 3130.47 1518.33L3029.71 1604.31L2842.9 1449.81Z" fill="#D9D9D9"></path>
    <path data-block="1" data-lot="6" id="test-102" d="M2835.4 1456.59L3021.98 1610.9L2947.72 1674.28L2764.11 1521.09L2835.4 1456.59Z" fill="#D9D9D9"></path>
    <path data-block="1" data-lot="5" id="test-103" d="M2756.62 1527.87L2940 1680.86L2865.13 1744.75L2680.73 1596.52L2756.62 1527.87Z" fill="#D9D9D9"></path>
    <path data-block="1" data-lot="4" id="test-104" d="M2673.22 1603.31L2857.39 1751.36L2785.7 1812.54L2605.54 1664.55L2673.22 1603.31Z" fill="#D9D9D9"></path>
    <path data-block="1" data-lot="3" id="test-105" d="M2598.04 1671.33L2777.97 1819.13L2709.11 1877.89L2526.61 1735.95L2598.04 1671.33Z" fill="#D9D9D9"></path>
    </g>
    <defs>
    <clipPath id="clip0_49_428">
    <rect width="3353" height="2024" fill="white"></rect>
    </clipPath>
    </defs>
</svg>