<svg width="24" height="25" viewBox="0 0 24 25" fill="none" xmlns="http://www.w3.org/2000/svg">
<path d="M12 15.3833C12 15.3833 17.5 10.6007 17.5 7.01373C17.5 4.0422 15.0376 1.6333 12 1.6333C8.96244 1.6333 6.5 4.0422 6.5 7.01373C6.5 10.6007 12 15.3833 12 15.3833Z" fill="#EED3B1"/>
<path d="M12 15.3833L11.3438 16.1379C11.7201 16.4651 12.2799 16.4651 12.6562 16.1379L12 15.3833ZM6.08568 16.2219C6.61696 16.071 6.92534 15.518 6.77446 14.9868C6.62359 14.4555 6.0706 14.1471 5.53932 14.298L6.08568 16.2219ZM18.4607 14.298C17.9294 14.1471 17.3764 14.4555 17.2255 14.9868C17.0747 15.518 17.383 16.071 17.9143 16.2219L18.4607 14.298ZM16.5 7.01373C16.5 7.67244 16.2409 8.47226 15.7612 9.35878C15.2886 10.2319 14.646 11.1093 13.9829 11.9021C13.3226 12.6915 12.6595 13.3766 12.1601 13.8651C11.911 14.1088 11.7042 14.3021 11.5608 14.4334C11.4892 14.4991 11.4335 14.5492 11.3964 14.5822C11.3779 14.5987 11.364 14.611 11.3551 14.6188C11.3507 14.6227 11.3475 14.6255 11.3456 14.6271C11.3446 14.628 11.344 14.6285 11.3437 14.6288C11.3436 14.6289 11.3435 14.629 11.3435 14.629C11.3435 14.6289 11.3436 14.6289 11.3436 14.6289C11.3437 14.6288 11.3438 14.6287 12 15.3833C12.6562 16.1379 12.6563 16.1378 12.6565 16.1376C12.6566 16.1375 12.6568 16.1374 12.657 16.1372C12.6573 16.1369 12.6578 16.1365 12.6583 16.1361C12.6593 16.1352 12.6607 16.134 12.6624 16.1325C12.6658 16.1295 12.6705 16.1254 12.6764 16.1202C12.6884 16.1096 12.7054 16.0946 12.7271 16.0752C12.7706 16.0365 12.8331 15.9803 12.9118 15.9081C13.0693 15.7639 13.2921 15.5556 13.5587 15.2948C14.0905 14.7745 14.8024 14.0397 15.5171 13.1852C16.229 12.334 16.9614 11.3431 17.5201 10.3107C18.0716 9.29162 18.5 8.14851 18.5 7.01373H16.5ZM12 15.3833C12.6562 14.6287 12.6563 14.6288 12.6564 14.6289C12.6564 14.6289 12.6565 14.6289 12.6565 14.629C12.6565 14.629 12.6564 14.6289 12.6563 14.6288C12.656 14.6285 12.6554 14.628 12.6544 14.6271C12.6525 14.6255 12.6493 14.6227 12.6449 14.6188C12.636 14.611 12.6221 14.5987 12.6036 14.5822C12.5665 14.5492 12.5108 14.4991 12.4392 14.4334C12.2958 14.3021 12.089 14.1088 11.8399 13.8651C11.3405 13.3766 10.6774 12.6915 10.0171 11.9021C9.35401 11.1093 8.71137 10.2319 8.23885 9.35878C7.75909 8.47226 7.5 7.67244 7.5 7.01373H5.5C5.5 8.14851 5.92842 9.29162 6.4799 10.3107C7.03864 11.3431 7.77099 12.334 8.48292 13.1852C9.19764 14.0397 9.90946 14.7745 10.4413 15.2948C10.7079 15.5556 10.9307 15.7639 11.0882 15.9081C11.1669 15.9803 11.2294 16.0365 11.2729 16.0752C11.2946 16.0946 11.3116 16.1096 11.3236 16.1202C11.3295 16.1254 11.3342 16.1295 11.3376 16.1325C11.3393 16.134 11.3407 16.1352 11.3417 16.1361C11.3422 16.1365 11.3427 16.1369 11.343 16.1372C11.3432 16.1374 11.3434 16.1375 11.3435 16.1376C11.3437 16.1378 11.3438 16.1379 12 15.3833ZM7.5 7.01373C7.5 4.61509 9.49389 2.6333 12 2.6333V0.633301C8.43098 0.633301 5.5 3.46931 5.5 7.01373H7.5ZM12 2.6333C14.5061 2.6333 16.5 4.61509 16.5 7.01373H18.5C18.5 3.46931 15.569 0.633301 12 0.633301V2.6333ZM22 19.05C22 19.3344 21.8659 19.696 21.4338 20.1216C20.9982 20.5507 20.3165 20.9832 19.3936 21.3678C17.552 22.1351 14.9385 22.6333 12 22.6333V24.6333C15.1366 24.6333 18.0232 24.1055 20.1628 23.2139C21.2304 22.7691 22.1597 22.214 22.8373 21.5464C23.5185 20.8754 24 20.0311 24 19.05H22ZM12 22.6333C9.06146 22.6333 6.44803 22.1351 4.60644 21.3678C3.68346 20.9832 3.00183 20.5507 2.56622 20.1216C2.13413 19.696 2 19.3344 2 19.05H0C0 20.0311 0.481476 20.8754 1.16265 21.5464C1.8403 22.214 2.76958 22.7691 3.83721 23.2139C5.97684 24.1055 8.8634 24.6333 12 24.6333V22.6333ZM2 19.05C2 18.6987 2.21173 18.2172 2.92734 17.6656C3.63293 17.1217 4.70624 16.6136 6.08568 16.2219L5.53932 14.298C4.0137 14.7312 2.68076 15.3305 1.70636 16.0816C0.741988 16.8249 0 17.8259 0 19.05H2ZM17.9143 16.2219C19.2938 16.6136 20.3671 17.1217 21.0727 17.6656C21.7883 18.2172 22 18.6987 22 19.05H24C24 17.8259 23.258 16.8249 22.2936 16.0816C21.3192 15.3305 19.9863 14.7312 18.4607 14.298L17.9143 16.2219Z" fill="#EED3B1"/>
</svg>
