<svg width="24" height="28" viewBox="0 0 24 28" fill="none" xmlns="http://www.w3.org/2000/svg">
<path d="M1 16.9768C1 16.4576 1.42456 16.0366 1.94829 16.0366H5.74143C6.26515 16.0366 6.68972 16.4576 6.68972 16.9768V25.4384C6.68972 25.9576 6.26515 26.3785 5.74143 26.3785H1.94829C1.42456 26.3785 1 25.9576 1 25.4384V16.9768Z" fill="#EED3B1"/>
<path d="M19.0174 9.45545C19.0174 11.5324 17.3192 13.2161 15.2243 13.2161C13.1294 13.2161 11.4311 11.5324 11.4311 9.45545C11.4311 7.37848 13.1294 5.69477 15.2243 5.69477C17.3192 5.69477 19.0174 7.37848 19.0174 9.45545Z" fill="#EED3B1"/>
<path d="M6.85007 23.5487C6.32568 23.722 6.04107 24.2876 6.21437 24.812C6.38767 25.3364 6.95326 25.621 7.47765 25.4477L6.85007 23.5487ZM14.276 24.9683L14.1861 23.9723L14.276 24.9683ZM18.5433 24.0281L18.9788 24.9283L18.5433 24.0281ZM22.6208 20.3506L21.8463 19.718V19.718L22.6208 20.3506ZM19.832 18.0496L20.5361 18.7597L19.832 18.0496ZM17.9541 19.9114L18.6582 20.6215H18.6582L17.9541 19.9114ZM12.8536 19.7375C12.3013 19.7375 11.8536 20.1852 11.8536 20.7375C11.8536 21.2898 12.3013 21.7375 12.8536 21.7375V19.7375ZM22.1872 17.8184L21.6358 18.6526L22.1872 17.8184ZM8.60713 17.2015L9.05128 18.0975V18.0975L8.60713 17.2015ZM13.7112 16.7386L13.9722 15.7733H13.9722L13.7112 16.7386ZM15.7044 17.2776L15.4434 18.2429H15.4434L15.7044 17.2776ZM16.336 19.6353L15.6319 18.9252L16.336 19.6353ZM14.5202 20.0274C14.128 20.4162 14.1253 21.0494 14.5142 21.4416C14.903 21.8338 15.5362 21.8365 15.9284 21.4476L14.5202 20.0274ZM7.47765 25.4477C7.63986 25.3941 7.95131 25.3642 8.47131 25.4009C8.97097 25.4363 9.55239 25.5229 10.2105 25.6253C11.4683 25.8212 13.0304 26.0848 14.366 25.9642L14.1861 23.9723C13.1509 24.0658 11.8681 23.8594 10.5182 23.6492C9.87237 23.5486 9.20916 23.4481 8.61237 23.4059C8.03591 23.3652 7.39907 23.3673 6.85007 23.5487L7.47765 25.4477ZM14.366 25.9642C16.2095 25.7977 17.0891 25.8426 18.9788 24.9283L18.1078 23.1279C16.6035 23.8557 16.1035 23.7991 14.1861 23.9723L14.366 25.9642ZM18.9788 24.9283C20.6772 24.1065 22.3726 22.2351 23.3952 20.9832L21.8463 19.718C20.814 20.9817 19.3638 22.5202 18.1078 23.1279L18.9788 24.9283ZM19.1279 17.3394L17.25 19.2013L18.6582 20.6215L20.5361 18.7597L19.1279 17.3394ZM15.9425 19.7375H12.8536V21.7375H15.9425V19.7375ZM17.25 19.2013C16.9047 19.5436 16.4345 19.7375 15.9425 19.7375V21.7375C16.9594 21.7375 17.9365 21.3371 18.6582 20.6215L17.25 19.2013ZM22.7386 16.9841C21.6042 16.2343 20.0942 16.3814 19.1279 17.3394L20.5361 18.7597C20.8281 18.4702 21.2896 18.4238 21.6358 18.6526L22.7386 16.9841ZM23.3952 20.9833C24.4553 19.6856 24.0555 17.8545 22.7386 16.9841L21.6358 18.6526C22.0488 18.9256 22.0948 19.4138 21.8463 19.718L23.3952 20.9833ZM1.94829 17.0366H5.74143V15.0366H1.94829V17.0366ZM5.68972 16.9768V25.4384H7.68972V16.9768H5.68972ZM5.74143 25.3785H1.94829V27.3785H5.74143V25.3785ZM2 25.4384V16.9768H0V25.4384H2ZM1.94829 25.3785C1.96872 25.3785 2 25.3972 2 25.4384H0C0 26.518 0.880402 27.3785 1.94829 27.3785V25.3785ZM5.68972 25.4384C5.68972 25.3972 5.72099 25.3785 5.74143 25.3785V27.3785C6.80932 27.3785 7.68972 26.518 7.68972 25.4384H5.68972ZM5.74143 17.0366C5.72099 17.0366 5.68972 17.0179 5.68972 16.9768H7.68972C7.68972 15.8972 6.80932 15.0366 5.74143 15.0366V17.0366ZM1.94829 15.0366C0.880398 15.0366 0 15.8972 0 16.9768H2C2 17.0179 1.96873 17.0366 1.94829 17.0366V15.0366ZM7.608 18.8129L9.05128 18.0975L8.16299 16.3056L6.71972 17.021L7.608 18.8129ZM11.5757 17.5067H11.9646V15.5067H11.5757V17.5067ZM13.4502 17.704L15.4434 18.2429L15.9654 16.3122L13.9722 15.7733L13.4502 17.704ZM15.6319 18.9252L14.5202 20.0274L15.9284 21.4476L17.04 20.3455L15.6319 18.9252ZM15.4434 18.2429C15.7614 18.3289 15.8508 18.7082 15.6319 18.9252L17.04 20.3455C18.3657 19.0312 17.7548 16.7961 15.9654 16.3122L15.4434 18.2429ZM11.9646 17.5067C12.4665 17.5067 12.9661 17.5731 13.4502 17.704L13.9722 15.7733C13.3179 15.5964 12.6427 15.5067 11.9646 15.5067V17.5067ZM9.05128 18.0975C9.8347 17.7091 10.699 17.5067 11.5757 17.5067V15.5067C10.3914 15.5067 9.22301 15.7801 8.16299 16.3056L9.05128 18.0975ZM18.0174 9.45545C18.0174 10.972 16.775 12.2161 15.2243 12.2161V14.2161C17.8634 14.2161 20.0174 12.0928 20.0174 9.45545H18.0174ZM15.2243 12.2161C13.6736 12.2161 12.4311 10.972 12.4311 9.45545H10.4311C10.4311 12.0928 12.5852 14.2161 15.2243 14.2161V12.2161ZM12.4311 9.45545C12.4311 7.93885 13.6736 6.69477 15.2243 6.69477V4.69477C12.5852 4.69477 10.4311 6.81811 10.4311 9.45545H12.4311ZM15.2243 6.69477C16.775 6.69477 18.0174 7.93885 18.0174 9.45545H20.0174C20.0174 6.81811 17.8634 4.69477 15.2243 4.69477V6.69477ZM11.4311 8.45545C9.88042 8.45545 8.638 7.21136 8.638 5.69477H6.638C6.638 8.33211 8.79209 10.4555 11.4311 10.4555V8.45545ZM8.638 5.69477C8.638 4.17817 9.88042 2.93408 11.4311 2.93408V0.934082C8.79209 0.934082 6.638 3.05743 6.638 5.69477H8.638ZM11.4311 2.93408C12.9819 2.93408 14.2243 4.17817 14.2243 5.69477H16.2243C16.2243 3.05743 14.0702 0.934082 11.4311 0.934082V2.93408Z" fill="#EED3B1"/>
</svg>
