<svg width="24" height="28" viewBox="0 0 24 28" fill="none" xmlns="http://www.w3.org/2000/svg">
<path d="M6.85056 23.5487C6.32617 23.722 6.04155 24.2876 6.21486 24.812C6.38816 25.3364 6.95375 25.621 7.47814 25.4477L6.85056 23.5487ZM14.2765 24.9683L14.1865 23.9723L14.2765 24.9683ZM18.5438 24.0281L18.9793 24.9283L18.5438 24.0281ZM22.6213 20.3506L21.8468 19.718V19.718L22.6213 20.3506ZM19.8325 18.0496L20.5365 18.7597L19.8325 18.0496ZM17.9546 19.9114L18.6587 20.6215H18.6587L17.9546 19.9114ZM12.8541 19.7375C12.3018 19.7375 11.8541 20.1852 11.8541 20.7375C11.8541 21.2898 12.3018 21.7375 12.8541 21.7375V19.7375ZM22.1877 17.8184L21.6363 18.6526L22.1877 17.8184ZM8.60762 17.2015L9.05177 18.0975V18.0975L8.60762 17.2015ZM13.7117 16.7386L13.9727 15.7733H13.9727L13.7117 16.7386ZM15.7049 17.2776L15.4439 18.2429H15.4439L15.7049 17.2776ZM16.3364 19.6353L15.6324 18.9252L16.3364 19.6353ZM14.5207 20.0274C14.1285 20.4162 14.1258 21.0494 14.5146 21.4416C14.9035 21.8338 15.5366 21.8365 15.9288 21.4476L14.5207 20.0274ZM7.47814 25.4477C7.64035 25.3941 7.95179 25.3642 8.4718 25.4009C8.97146 25.4363 9.55288 25.5229 10.2109 25.6253C11.4688 25.8212 13.0309 26.0848 14.3664 25.9642L14.1865 23.9723C13.1513 24.0658 11.8686 23.8594 10.5187 23.6492C9.87286 23.5486 9.20965 23.4481 8.61286 23.4059C8.0364 23.3652 7.39956 23.3673 6.85056 23.5487L7.47814 25.4477ZM14.3664 25.9642C16.21 25.7977 17.0895 25.8426 18.9793 24.9283L18.1083 23.1279C16.604 23.8557 16.104 23.7991 14.1865 23.9723L14.3664 25.9642ZM18.9793 24.9283C20.6777 24.1065 22.3731 22.2351 23.3957 20.9832L21.8468 19.718C20.8145 20.9817 19.3643 22.5202 18.1083 23.1279L18.9793 24.9283ZM19.1284 17.3394L17.2505 19.2013L18.6587 20.6215L20.5365 18.7597L19.1284 17.3394ZM15.943 19.7375H12.8541V21.7375H15.943V19.7375ZM17.2505 19.2013C16.9052 19.5436 16.435 19.7375 15.943 19.7375V21.7375C16.9599 21.7375 17.937 21.3371 18.6587 20.6215L17.2505 19.2013ZM22.7391 16.9841C21.6047 16.2343 20.0947 16.3814 19.1284 17.3394L20.5365 18.7597C20.8286 18.4702 21.2901 18.4238 21.6363 18.6526L22.7391 16.9841ZM23.3957 20.9833C24.4558 19.6856 24.056 17.8545 22.7391 16.9841L21.6363 18.6526C22.0493 18.9256 22.0953 19.4138 21.8468 19.718L23.3957 20.9833ZM1.94877 17.0366H5.74192V15.0366H1.94877V17.0366ZM5.6902 16.9768V25.4384H7.6902V16.9768H5.6902ZM5.74192 25.3785H1.94877V27.3785H5.74192V25.3785ZM2.00049 25.4384V16.9768H0.000488281V25.4384H2.00049ZM1.94877 25.3785C1.96921 25.3785 2.00049 25.3972 2.00049 25.4384H0.000488281C0.000488281 26.518 0.88089 27.3785 1.94877 27.3785V25.3785ZM5.6902 25.4384C5.6902 25.3972 5.72148 25.3785 5.74192 25.3785V27.3785C6.8098 27.3785 7.6902 26.518 7.6902 25.4384H5.6902ZM5.74192 17.0366C5.72148 17.0366 5.6902 17.0179 5.6902 16.9768H7.6902C7.6902 15.8972 6.80981 15.0366 5.74192 15.0366V17.0366ZM1.94877 15.0366C0.880886 15.0366 0.000488281 15.8972 0.000488281 16.9768H2.00049C2.00049 17.0179 1.96921 17.0366 1.94877 17.0366V15.0366ZM7.60849 18.8129L9.05177 18.0975L8.16348 16.3056L6.7202 17.021L7.60849 18.8129ZM11.5762 17.5067H11.9651V15.5067H11.5762V17.5067ZM13.4507 17.704L15.4439 18.2429L15.9659 16.3122L13.9727 15.7733L13.4507 17.704ZM15.6324 18.9252L14.5207 20.0274L15.9288 21.4476L17.0405 20.3455L15.6324 18.9252ZM15.4439 18.2429C15.7619 18.3289 15.8513 18.7082 15.6324 18.9252L17.0405 20.3455C18.3662 19.0312 17.7553 16.7961 15.9659 16.3122L15.4439 18.2429ZM11.9651 17.5067C12.467 17.5067 12.9666 17.5731 13.4507 17.704L13.9727 15.7733C13.3184 15.5964 12.6432 15.5067 11.9651 15.5067V17.5067ZM9.05177 18.0975C9.83519 17.7091 10.6995 17.5067 11.5762 17.5067V15.5067C10.3919 15.5067 9.2235 15.7801 8.16348 16.3056L9.05177 18.0975ZM18.0179 9.45545C18.0179 10.972 16.7755 12.2161 15.2248 12.2161V14.2161C17.8638 14.2161 20.0179 12.0928 20.0179 9.45545H18.0179ZM15.2248 12.2161C13.674 12.2161 12.4316 10.972 12.4316 9.45545H10.4316C10.4316 12.0928 12.5857 14.2161 15.2248 14.2161V12.2161ZM12.4316 9.45545C12.4316 7.93885 13.674 6.69477 15.2248 6.69477V4.69477C12.5857 4.69477 10.4316 6.81811 10.4316 9.45545H12.4316ZM15.2248 6.69477C16.7755 6.69477 18.0179 7.93885 18.0179 9.45545H20.0179C20.0179 6.81811 17.8638 4.69477 15.2248 4.69477V6.69477ZM11.4316 8.45545C9.8809 8.45545 8.63849 7.21136 8.63849 5.69477H6.63849C6.63849 8.33211 8.79257 10.4555 11.4316 10.4555V8.45545ZM8.63849 5.69477C8.63849 4.17817 9.8809 2.93408 11.4316 2.93408V0.934082C8.79257 0.934082 6.63849 3.05743 6.63849 5.69477H8.63849ZM11.4316 2.93408C12.9824 2.93408 14.2248 4.17817 14.2248 5.69477H16.2248C16.2248 3.05743 14.0707 0.934082 11.4316 0.934082V2.93408Z" fill="#47663B"/>
</svg>
