<svg width="24" height="25" viewBox="0 0 24 25" fill="none" xmlns="http://www.w3.org/2000/svg">
<path d="M12.0005 15.3833L11.3443 16.1379C11.7206 16.4651 12.2804 16.4651 12.6567 16.1379L12.0005 15.3833ZM6.08617 16.2219C6.61745 16.071 6.92582 15.518 6.77495 14.9868C6.62408 14.4555 6.07108 14.1471 5.53981 14.298L6.08617 16.2219ZM18.4612 14.298C17.9299 14.1471 17.3769 14.4555 17.226 14.9868C17.0752 15.518 17.3835 16.071 17.9148 16.2219L18.4612 14.298ZM16.5005 7.01373C16.5005 7.67244 16.2414 8.47226 15.7616 9.35878C15.2891 10.2319 14.6465 11.1093 13.9834 11.9021C13.3231 12.6915 12.66 13.3766 12.1606 13.8651C11.9115 14.1088 11.7047 14.3021 11.5613 14.4334C11.4897 14.4991 11.434 14.5492 11.3969 14.5822C11.3784 14.5987 11.3645 14.611 11.3556 14.6188C11.3512 14.6227 11.348 14.6255 11.3461 14.6271C11.3451 14.628 11.3445 14.6285 11.3442 14.6288C11.3441 14.6289 11.344 14.629 11.344 14.629C11.344 14.6289 11.3441 14.6289 11.3441 14.6289C11.3442 14.6288 11.3443 14.6287 12.0005 15.3833C12.6567 16.1379 12.6568 16.1378 12.657 16.1376C12.6571 16.1375 12.6573 16.1374 12.6575 16.1372C12.6578 16.1369 12.6583 16.1365 12.6588 16.1361C12.6598 16.1352 12.6612 16.134 12.6629 16.1325C12.6663 16.1295 12.671 16.1254 12.6769 16.1202C12.6889 16.1096 12.7059 16.0946 12.7276 16.0752C12.7711 16.0365 12.8336 15.9803 12.9123 15.9081C13.0698 15.7639 13.2926 15.5556 13.5592 15.2948C14.091 14.7745 14.8029 14.0397 15.5176 13.1852C16.2295 12.334 16.9619 11.3431 17.5206 10.3107C18.0721 9.29162 18.5005 8.14851 18.5005 7.01373H16.5005ZM12.0005 15.3833C12.6567 14.6287 12.6568 14.6288 12.6569 14.6289C12.6569 14.6289 12.657 14.6289 12.657 14.629C12.657 14.629 12.6569 14.6289 12.6568 14.6288C12.6565 14.6285 12.6558 14.628 12.6549 14.6271C12.653 14.6255 12.6498 14.6227 12.6454 14.6188C12.6365 14.611 12.6226 14.5987 12.6041 14.5822C12.567 14.5492 12.5113 14.4991 12.4397 14.4334C12.2963 14.3021 12.0895 14.1088 11.8404 13.8651C11.341 13.3766 10.6779 12.6915 10.0176 11.9021C9.3545 11.1093 8.71185 10.2319 8.23934 9.35878C7.75957 8.47226 7.50049 7.67244 7.50049 7.01373H5.50049C5.50049 8.14851 5.92891 9.29162 6.48039 10.3107C7.03913 11.3431 7.77148 12.334 8.48341 13.1852C9.19812 14.0397 9.90995 14.7745 10.4418 15.2948C10.7084 15.5556 10.9312 15.7639 11.0886 15.9081C11.1674 15.9803 11.2299 16.0365 11.2734 16.0752C11.2951 16.0946 11.3121 16.1096 11.324 16.1202C11.33 16.1254 11.3347 16.1295 11.3381 16.1325C11.3398 16.134 11.3412 16.1352 11.3422 16.1361C11.3427 16.1365 11.3432 16.1369 11.3435 16.1372C11.3437 16.1374 11.3439 16.1375 11.344 16.1376C11.3442 16.1378 11.3443 16.1379 12.0005 15.3833ZM7.50049 7.01373C7.50049 4.61509 9.49438 2.6333 12.0005 2.6333V0.633301C8.43147 0.633301 5.50049 3.46931 5.50049 7.01373H7.50049ZM12.0005 2.6333C14.5066 2.6333 16.5005 4.61509 16.5005 7.01373H18.5005C18.5005 3.46931 15.5695 0.633301 12.0005 0.633301V2.6333ZM22.0005 19.05C22.0005 19.3344 21.8664 19.696 21.4343 20.1216C20.9987 20.5507 20.317 20.9832 19.394 21.3678C17.5525 22.1351 14.939 22.6333 12.0005 22.6333V24.6333C15.1371 24.6333 18.0236 24.1055 20.1633 23.2139C21.2309 22.7691 22.1602 22.214 22.8378 21.5464C23.519 20.8754 24.0005 20.0311 24.0005 19.05H22.0005ZM12.0005 22.6333C9.06195 22.6333 6.44851 22.1351 4.60693 21.3678C3.68395 20.9832 3.00231 20.5507 2.56671 20.1216C2.13462 19.696 2.00049 19.3344 2.00049 19.05H0.000488281C0.000488281 20.0311 0.481965 20.8754 1.16314 21.5464C1.84079 22.214 2.77007 22.7691 3.8377 23.2139C5.97733 24.1055 8.86389 24.6333 12.0005 24.6333V22.6333ZM2.00049 19.05C2.00049 18.6987 2.21222 18.2172 2.92783 17.6656C3.63342 17.1217 4.70673 16.6136 6.08617 16.2219L5.53981 14.298C4.01419 14.7312 2.68125 15.3305 1.70685 16.0816C0.742476 16.8249 0.000488281 17.8259 0.000488281 19.05H2.00049ZM17.9148 16.2219C19.2943 16.6136 20.3676 17.1217 21.0731 17.6656C21.7888 18.2172 22.0005 18.6987 22.0005 19.05H24.0005C24.0005 17.8259 23.2585 16.8249 22.2941 16.0816C21.3197 15.3305 19.9868 14.7312 18.4612 14.298L17.9148 16.2219Z" fill="#47663B"/>
</svg>
